/* XPM */
static char *_58e1dbeaa104382b369e6dc0f4c289dncgVoAyGbXi046fS[] = {
/* columns rows colors chars-per-pixel */
"44 52 244 2 ",
"   c None",
".  c black",
"X  c #010000",
"o  c #020101",
"O  c #020201",
"+  c #030201",
"@  c #030102",
"#  c #030202",
"$  c #050504",
"%  c #070505",
"&  c #0A0707",
"*  c #080806",
"=  c #0A0807",
"-  c #0C0908",
";  c #130907",
":  c #130A07",
">  c #130A08",
",  c #100B0B",
"<  c #140A08",
"1  c #140B08",
"2  c #110C0B",
"3  c #130E0D",
"4  c #15160F",
"5  c #151710",
"6  c #1B1210",
"7  c #1A1412",
"8  c #1D1412",
"9  c #1F1715",
"0  c #161810",
"q  c #201715",
"w  c #231A18",
"e  c #202218",
"r  c #342823",
"t  c #362925",
"y  c #2D3121",
"u  c #2D3122",
"i  c #2F3223",
"p  c #303323",
"a  c #343827",
"s  c #353928",
"d  c #363A28",
"f  c #373C29",
"g  c #383C29",
"h  c #383D2A",
"j  c #4F3C35",
"k  c #533F38",
"l  c #3C412D",
"z  c #3F442F",
"x  c #404530",
"c  c #434831",
"v  c #434832",
"b  c #444932",
"n  c #464B34",
"m  c #484E35",
"M  c #484E36",
"N  c #494E36",
"B  c #4B5138",
"V  c #545A3E",
"C  c #6A4639",
"Z  c #6B463A",
"A  c #6C493D",
"S  c #704131",
"D  c #734535",
"F  c #794736",
"G  c #794B3B",
"H  c #7C4A39",
"J  c #7A4D3D",
"K  c #7B4E3E",
"L  c #5E4840",
"P  c #634C44",
"I  c #735348",
"U  c #70554C",
"Y  c #76584E",
"T  c #785B51",
"R  c #785B52",
"E  c #785C52",
"W  c #795C52",
"Q  c #7A5D53",
"!  c #5C6344",
"~  c #5D6445",
"^  c #646C4A",
"/  c #69714E",
"(  c #7E6056",
")  c #7F6056",
"_  c #6C7450",
"`  c #727B55",
"'  c #814F3E",
"]  c #845342",
"[  c #845343",
"{  c #835647",
"}  c #885747",
"|  c #845748",
" . c #855849",
".. c #855949",
"X. c #895848",
"o. c #8A5949",
"O. c #8B5B4A",
"+. c #8B5B4B",
"@. c #8C5B4B",
"#. c #8C5C4B",
"$. c #8C5C4C",
"%. c #8D5D4C",
"&. c #8E5E4E",
"*. c #8F5F4F",
"=. c #935F4D",
"-. c #90604F",
";. c #816257",
":. c #906050",
">. c #906150",
",. c #916150",
"<. c #956555",
"1. c #966756",
"2. c #9C6755",
"3. c #9C6857",
"4. c #936859",
"5. c #996959",
"6. c #9C6D5D",
"7. c #9D6E5E",
"8. c #9E6F5F",
"9. c #A36A57",
"0. c #A36B57",
"q. c #A36B58",
"w. c #A36B59",
"e. c #A36C59",
"r. c #A46C59",
"t. c #A66D59",
"y. c #A46D5A",
"u. c #A56D5B",
"i. c #A66D5A",
"p. c #A56E5B",
"a. c #A76E5B",
"s. c #A26D5C",
"d. c #A66F5C",
"f. c #A76F5C",
"g. c #A6705E",
"h. c #A7715E",
"j. c #A7715F",
"k. c #A8705D",
"l. c #A9725F",
"z. c #9F7060",
"x. c #9F7566",
"c. c #9E786B",
"v. c #9F796C",
"b. c #A07262",
"n. c #A17363",
"m. c #A87260",
"M. c #A87360",
"N. c #A87361",
"B. c #A97361",
"V. c #A97462",
"C. c #A97563",
"Z. c #AA7462",
"A. c #AA7564",
"S. c #AA7664",
"D. c #AD7866",
"F. c #AC7967",
"G. c #A17A6D",
"H. c #A97B6B",
"J. c #AC7968",
"K. c #AC7A69",
"L. c #AD7B6A",
"P. c #AE7C6B",
"I. c #A97C6C",
"U. c #AA7D6D",
"Y. c #AB7D6E",
"T. c #AB7E6E",
"R. c #AE7D6C",
"E. c #AF7D6D",
"W. c #AF7E6D",
"Q. c #B07D6C",
"!. c #AC7F70",
"~. c #889365",
"^. c #8C9667",
"/. c #8C9768",
"(. c #929D6C",
"). c #AD8070",
"_. c #AE8172",
"`. c #AE8272",
"'. c #AB8274",
"]. c #AC8375",
"[. c #AE8576",
"{. c #B18070",
"}. c #B18170",
"|. c #B18171",
" X c #B28272",
".X c #B28373",
"XX c #B08374",
"oX c #B18475",
"OX c #B38474",
"+X c #B38475",
"@X c #B38575",
"#X c #B28576",
"$X c #B48575",
"%X c #B48576",
"&X c #B58777",
"*X c #B18678",
"=X c #B58778",
"-X c #B3887A",
";X c #B58879",
":X c #B5897A",
">X c #B6897A",
",X c #B58A7B",
"<X c #B78A7A",
"1X c #B68A7B",
"2X c #B78A7B",
"3X c #B78B7B",
"4X c #B78B7C",
"5X c #B88979",
"6X c #B88B7C",
"7X c #B88C7D",
"8X c #B98C7D",
"9X c #BA8D7D",
"0X c #B88C7E",
"qX c #B88D7E",
"wX c #B98D7E",
"eX c #BA8D7E",
"rX c #BA8E7E",
"tX c #BA8E7F",
"yX c #BB8E7F",
"uX c #99A572",
"iX c #9AA672",
"pX c #9BA673",
"aX c #9BA773",
"sX c #A5B27B",
"dX c #A8B57C",
"fX c #ABB87E",
"gX c #BA8F80",
"hX c #BC8F80",
"jX c #BE9181",
"kX c #ADBA80",
"lX c #B2BF84",
"zX c #B2C084",
"xX c #B3C084",
"cX c #B3C185",
"vX c #B6C487",
"bX c #B8C688",
"nX c #B9C789",
"mX c #B9C889",
"MX c #BAC88A",
"NX c #BBC98A",
"BX c #BBCA8B",
"VX c #BCCA8B",
"CX c #BDCC8C",
"ZX c #BECC8D",
/* pixels */
"                                                                                        ",
"                                                                                        ",
"              l N N N N N m m m m m N m m m N N N m m m m N N m N N b                   ",
"          s ! aXMXMXbXbXMXbXMXbXbXMXbXMXMXbXMXbXbXMXbXMXMXbXMXbXbXMXcX_ B               ",
"        p ^.VXbXvXvXvXvXvXvXvXvXvXvXvXvXvXvXvXvXvXvXvXvXvXvXvXvXcXbXvXVXdXV             ",
"      e ~.MXlX~ s h h h f f f f f f f f f f f f f f f f f f f f h h x pXCXsXN           ",
"      s kXVX/ * . . @ , - 3 - 3 - - 3 , , , , , , , , , 3 - 2 & . . . s kXCX^           ",
"    0 /.bXkXc . @ 7 j v.v.v.v.v.G.G.v.v.v.v.v.v.v.v.v.v.v.v.G.T w - . 5 (.bXfXx         ",
"    0 aXZX` % . r c.*XeXeXeXeXeXeXgXeXgXeXeXeXeXeXeXeXeXeXeXeX3X'.P & . h zXMXb         ",
"    4 aXZX_ . r v.gX0X0X4XeX4XeXeX4X4XeX4XeX4X4X4XeX6X0XeX3X4X4XgX*XL % y zXbXx         ",
"    4 aXZX_ . ( yX6X0X0X4X4XeX4X4X4X4X4X4XeX4XeX4X0X0X0X4X4X4XeXeXgX'.9 y lXbXb         ",
"    4 uXZX_ # ( yX0X6X0X4XW.J.J.K.K.J.J.J.J.J.J.K.K.F.F.K.3X4X4X4X4X'.9 y cXbXb         ",
"    4 aXCX_ @ ( yXeXeX4XW.y.y.y.p.p.w.y.9.9.0.y.r.r.w.p.y.C.3X4XeXgX'.9 y cXbXv         ",
"    4 uXCX_ @ ;.eX6X4X3XA.d.XXOX}.$XOXQ.y.9.F.OXOX$XXXXXC.p.$X0X4X4X'.9 y lXbXv         ",
"    0 aXCX_ . Q yX4XeXW.d.}.4X4XgX4XgX3Xp.9.L.eX0X0X4XgX=Xm.B.3XeXeX'.q y lXbXv         ",
"    0 aXCX_ . ;.yXeX4XL.w.OX4XeX4XeX4XOXp.p.L.eX0X0XeX4X4XB.d.3X4XeX'.q y cXbXb         ",
"    5 uXCX_ . ;.gXeXeXL.0.OX0X0X4X4X4X3Xp.9.L.eX4X4XeX4X4XC.g.3XeXgX'.9 y lXbXb         ",
"    5 pXZX_ # Q gX4XeXK.p.OX0X6X4XeX4X=Xp.9.W.4X4XeX4X4X4XC.g.3X4X4X'.9 y zXbXb         ",
"    5 pXZX_ # ;.eX0X0XK.0.OX0X0XeX4X4X=Xp.9.W.gX4X4XeXgX3XC.g.3XeXgX'.9 y zXbXx         ",
"    5 pXZX_ . ;.yX0XeXK.r.OX0X0X4X4XeX=Xp.9.U.4XgX4X4X4X3Xl.g.3X4X4X'.9 y zXbXb         ",
"    0 aXZX_ # Q yX0X0XK.r.+X0X0X4XeX4X3Xp.9.W.4X4X4X4XeX3XC.g.3XeXgX'.9 p lXbXv         ",
"    5 aXZX_ . ;.yX0XeXK.r.+X0X0X4X4X4XOXp.9.W.gXeXeX4X4X3Xm.g.3X4X4X'.9 y lXbXv         ",
"    5 aXZX_ . ;.gX4X0XK.r.+XgX4XeXeX4X3Xp.9.L.4X4X4XeX3X3XC.g.6XeXeX'.q y lXbXv         ",
"    4 uXZX_ # Q yXeXeXK.r.XX4X4X4X4X4X3Xp.9.W.4X4XeX6X0X3Xl.g.6XeXhX'.q y lXbXx         ",
"    4 aXCX_ . ( hXeX4XK.w.OXgX4XeX4X3X3Xy.9.W.4X4XeX4X4X4X3.-.8.z.z.4.6 y lXbXb         ",
"    4 uXCX_ . ( eX4X4XW.p.OXgX4X4X4X4XOXy.w.W.gX4X4XeX4X4X&.&.H F @.K < y cXbXb         ",
"    0 aXZX_ . ;.yXeXeXL.w.$XeX4X4XeXeX3Xp.w.W.4XgXeX4X4X3X#.-.b.b.5.G ; y cXbXb         ",
"    0 aXZX_ . ( eX0XeXK.r.}.4XeX4X4X4X$Xy.9.W.4X4X4X4XgX3X} ] 3XeX<.S 1 y lXbXb         ",
"    5 uXZX_ # ( yX0X0XK.r.XX4XgXeXgX4X3Xp.9.K.gX4X4X4XeX3Xo.| ).XX1.D 1 y cXMXv         ",
"    5 aXZX_ . ( yX0X0XK.r.XXgX4X4X4X4XOXp.9.W.4XeXgX4X4X=X&.b.&.' 6.{ , y zXvXv         ",
"    0 pXZX_ # ;.yX0XeXK.r.+X4X4X4XeXeX3Xy.w.W.4X4X4XgX4X4X,.).U.] 7. ., i zXvXc         ",
"    5 pXZX_ # Q gX0XeXK.r.+XgXeX4X4X4XOXy.w.W.gX4XgX4X4X=X,.).OX=.7.| < y zXMXv         ",
"    0 aXZX_ . ( hXeX0XK.p.OX0X0X4XtX4X5Xy.9.L.eX4X4X4XtX,X&.).OXO.6..., i lXbXv         ",
"    4 aXZX_ # ( gX4XeXK.r.+X0X0X4XeX4X3Xy.9.).qX4XeX4X4X,X>.).4X).U.| ; y zXbXc         ",
"    5 aXZX_ . ( hX0X0XK.0.OX0X6X4X4X4X&Xg.9.L.qXtX4XtX4X,XO.O.>.,.,.J 1 i zXbXv         ",
"    4 uXZX_ @ ( gX0X0XK.p.OX0X0XeX4X4X&Xy.9.W.4X4X4XtX4X3Xy.3.K.U.U.x.8 y zXbXv         ",
"    4 aXCX_ @ ( gX4XeXK.0.OX0X0X4X4XtX&Xp.0.).tX4XtX4X4X4XC.g.3XeXeX].9 y zXbXc         ",
"    4 uXCX_ @ ;.yXeXeXK.r.OX0X0XeX4X4X3Xp.0.L.4X4X4XtX4X3XC.g.3X4XeX'.9 y zXbXc         ",
"    0 aXCX_ . Q yX0X0XK.0.OX0X6XeX4X4XOXp.9.L.eXtXtX4X4X4XC.g.5XeXeX'.9 y zXbXc         ",
"    0 aXCX_ . ;.yX0X0XK.p.OX0XeX4X4XeX5Xp.9.).4X4X4X4XtX4XC.g.3X4XeX'.9 y zXbXb         ",
"    4 uXZX_ . ;.yX0X4XW.w.OXgX4X4XeX4X5Xy.9.W.4X4XeXeX4X3Xl.g.5X4XeX'.9 y cXbXv         ",
"    4 uXZX_ . ;.yX6XeXK.y.}.eX4X4X4X4X3Xy.9.W.4X4X4X4X4X3Xl.g.5X4XeX'.q y lXbXv         ",
"    7 aXZX_ # ;.yX3XeXK.w.m.=X4X3X4X4X5Xg.9.L.4XeX4X3X3XL.y.k.6XeXeX'.q y lXbXv         ",
"    4 aXZX_ @ ;.yXeX4XW.y.w.A.OX5XOX5X}.y.0.K.3X&X3X5XL.y.0.C.6X4X4X'.q y cXbXv         ",
"    0 aXZX_ # ;.jXjXyXyXL.C.a.a.l.k.k.k.p.t.a.l.g.g.l.p.B.F.6XyXjXgX[.q y lXbXv         ",
"    4 aXZX_ . N T T T T R Y A Z C Z C C C Z C C C C C C I T R R E E U 3 y cXbXb         ",
"      aXZX_ . . # # # # # # # . . # # # # . # # . # . # # # # . @ @ @ . i zXbXv         ",
"                                                                                        ",
"                                                                                        ",
"                                                                                        ",
"                                                                                        ",
"                                                                                        "
};
