/* XPM */
static char *c1c6517975ee4799e175c8bfb112d67dUiXV6oiNMeHQs24M[] = {
/* columns rows colors chars-per-pixel */
"64 64 8 1 ",
"  c #A60000",
". c #A40003",
"X c #A40004",
"o c #A50006",
"O c #A50009",
"+ c #DCCBC6",
"@ c #DECCC8",
"# c #E0DBD3",
/* pixels */
"#@++++++++++++++++++++++++++++++++++++++++++++++++++++++++++++@#",
"@      .    .  .   ..   .   .   .   .  ..    .  .   .   .    . @",
"+  Oo. .. XX.. XXo ... XX ..XX .. X... XX  ... XX ..XX .. X oX +",
"+ oOXOOoXOOooOOXXOOoooOXOOooXOOOoooOoOOXOXOOXOOXOoOoXOOOoooOOX +",
"+ XOo XooXoXoo XXoooX  oXooo X XoXoXoo Xo XX oooXooo X X oooOX +",
"+  OoX o  o  X o X XooXX. X  ooX  o  X ooXo X. XX X  ooXXX Xo..+",
"+  o  XXXo XoXXoo X  Xo   XXXX  Xo XoXXoX  oo o   XXXX  o o o. +",
"+ XOXoo X oX  X X oX oX Xoo o XoX oX  X  oXX XX Xoo o Xo XX o..+",
"+ ooooX  X X  Xoo Xo XXooXX oXX   Xoo XX  Xoo XXX  XX  XXo XO. +",
"+  o X o ooXXoX X  X o X  oX  oXXoX X o XoX X o ooX ooX X oXo..+",
"+ XOXo XXX   o XXooXXo  X o X o  o X XoX o X XoX XXo XXoo X o. +",
"+  OX oXo XoXX o X   XXooXX oXX XX ooX  XX ooX  X  oX  o Xooo..+",
"+ Xo Xo oX o  Xoo XooXX   X o Xo X X X X X X X Xoo XXo XX  oo. +",
"+  Oo. X  XXXoX X  X  oXXooXX  X ooX ooX ooX ooX XX  oX ooXXo..+",
"+ XOo oXXoo  o XXooXX o X  XXooXXX  XX  XX  XX   Xo  XX  Xo o. +",
"+  ooX  X X XX o X  oXX oX o X  o Xoo Xoo Xoo XoX oXX ooX X o..+",
"+ XOo Xoo Xo XXo XXo  X o Xo XXoX  XX  XX  XX  Xoo XXo Xo Xoo. +",
"+  O XX X  X o X o XXooXX  X o XooX ooX ooX ooX  XX  oX oX oo..+",
"+ Xoooo XooXXo  Xo  X  XXooXXo   XXo XXo XXo XXo Xo  XX  Xooo. +",
"+ oo X X X   XXo XXooX o X   XXoX  oX  oX  oX  oX oXX ooX  Xo..+",
"+  OXXo o XooXX oXX   X o XooXX oo XXo Xoo XXo Xo  Xo  XX  oo. +",
"+ Xoo  XX  X  oX  oXXooXX  X  oX XX  oX  XX  oX oXX oXX ooXXo..+",
"+ XOX XoXooXX o X o X  XXooXX o  Xo  XX  Xo  XX  Xoo Xoo Xo o. +",
"+  oooX  X  oXX oXX oX o X  oXX X oXX ooX oXX ooX  XX  XX X o..+",
"+ ooo Xo  X o Xo  X o Xo  X o Xoo  Xoo XXo Xo  XX  XX  Xo Xoo. +",
"+  ooX XXooXX  XXooXX  XXooXX  XoXX  XX  oX oXX ooX ooX oX oo..+",
"+ XOo X X  XXooXX  XXooXX  XXooX Xoo Xo  XX  Xoo XXo XXo Xooo. +",
"+ ooX oXoX o X  oX o X  oX o X  X  XX oXX ooX  XX  oX  oX  Xo..+",
"+ XO Xo  XXo XXo XXo XXo XXo XXoX  Xoo XXo XX  Xoo XXo XX  oo. +",
"+  O oX  o X o X o X o X o X o XooX  XX  oX ooX  XX  oX ooXXo..+",
"+  oX XoXo  Xo  Xo  Xo  Xo  Xo   XXo Xo  XX  XXo Xo  XX  Xo o. +",
"+ XOoo X XXo XXo XXo XXo XXo XXoX  oX oXX ooX  oX oXX ooX X o..+",
"+ ooooX X  oX  oX  oX  oX  oX  oo  Xoo XXo Xo  Xoo XXo Xo Xoo. +",
"+  o X o oXX oXX oXX oXX oXX oXXoXX  XX  oX oXX  XX  oX oX oo..+",
"+ XOXo XXoX XoX XoX XoX XoX XoX  Xoo Xo  XX  Xoo Xo  XX  Xooo. +",
"+  OX oXX  oX  oX  oX  oX  oX  oX  XX oXX ooX  XX oXX ooX  Xo..+",
"+ Xo Xo o XoX XXo XoX XXo XoX XXX  Xoo XXo XX  Xo  Xo  XX  oo. +",
"+  OoX X XX  oo  XX  oo  XX  oo ooX  XX  oX ooX oXX oXX ooXXo..+",
"+ XOo X  oo  XX  oo  XX  oo  XX  XXo Xo  XX  XXo Xoo Xoo Xo o. +",
"+  ooX oXX XoX oXX XoX oXX XoX oX  oX oXX ooX  oX  XX  XX X o..+",
"+ XOo XoX XXo  Xo  Xo XoX XXo  Xoo XXo Xoo XXo XX  XX  Xo Xoo. +",
"+  O XX  oo  XoX XoX XX  oo  XoX XX  oX  XX  oX ooX ooX oX oo..+",
"+ Xoooo  XX XXo XXo  oo  XX XXo  Xo  XX  Xo  XX  XXo XXo Xooo. +",
"+ oo X XoX oo  Xo  XXX XoX oo  XX oXX ooX oXX ooX  oX  oX  Xo..+",
"+  OXXo X XXX  oX  oo XoX XXX  oo  Xo  Xo  Xo  Xoo XXo XX  oo. +",
"+ Xoo  X oo  oXX oXX XX  oo  oXXoXX oXX oXX oXX  XX  oX ooXXo..+",
"+ XOX Xo XX XoX XoX  oo  XX XoX  Xoo Xoo Xoo Xoo Xo  XX  Xo o. +",
"+  oooX oX oX  oX  oXX XoX oX  oX  XX  XX  XX  XX oXX ooX X o..+",
"+ ooo Xo XXo  X X XXo  Xo XoX XXX  oX  oX  oX  ooo XXo Xo Xoo. +",
"+  ooX X o XXooX oo  XoX XX  oo  oXX oXX oXX oXX XX  oX oX oo..+",
"+ XOo X Xo  X  X XX XXo  oo  XX XoX XoX XoX XoX  Xo  XX  Xooo. +",
"+ ooX oX XXooX ooX oo  XXX XoX oX  oX  oX  oX  oX oXX ooX  Xo..+",
"+ XO Xo oXX   X X XXX  oo  Xo  Xo XoX XXo XoX XXo  Xo  XX  oo. +",
"+  O oX   oXXooX oo  oXX XoX XoX XX  oo  XX  oo oXX oXX ooXXo..+",
"+  oX XoX o X  X XX XoX XXo XXo  oo  XX  oo  XX  Xoo Xoo Xo o. +",
"+ XOoo XoXX oX ooX oX  oo  Xo  XXX XoX oXX XoX oX  XX  XX X o..+",
"+  O ooX Xo Xo X Xo Xo XoX o ooXo X XXo  Xo Xo XoX o ooXo  XO. +",
"+ XOXX   oX  X ooX XX oX  XXXX   X oo  XoX XX oX  XXXX  oXoXo..+",
"+  Xo  .XXooX X X X oo  Xoo  X .X XX oXoX X oo  Xoo  X X  X o. +",
"+ oOoXoXo  XoooX ooX XXoX X oooXooo XX o ooX XXoX X oooXXoooo..+",
"+ XOooOOoOOXooOoXOOOXOOXOOOXoooOoOOXOooOXOOOXOOXOOOXXOoOOOXOOo +",
"+ .O.. XXX ... .X  XXX .. oX.. XXX ... .X  XXX .. oX.. X. o o. +",
"@      .    .  ..    .  .    . .    .  ..    .  .   .   .    . @",
"#@++++++++++++++++++++++++++++++++++++++++++++++++++++++++++++@#"
};
