/* XPM */
static char *_cd8b0a513844d81db07bab53e84af8eZngn5l5oVAy0FgHf[] = {
/* columns rows colors chars-per-pixel */
"64 64 242 2 ",
"   c #A8E88A",
".  c #A8E889",
"X  c #A7E78B",
"o  c #A8E88B",
"O  c #A7E889",
"+  c #A8E988",
"@  c #A7E78A",
"#  c #A8E888",
"$  c #A9E88E",
"%  c #A8E88C",
"&  c #A7E78C",
"*  c #A8E78A",
"=  c #A7E789",
"-  c #A6E68B",
";  c #A7E88A",
":  c #A8E987",
">  c #A8E68A",
",  c #A7E787",
"<  c #A4E38B",
"1  c #9BD986",
"2  c #9DDD84",
"3  c #A6E688",
"4  c #A6E78B",
"5  c #A7E78D",
"6  c #A8E78B",
"7  c #A7E788",
"8  c #A7E68C",
"9  c #A8E88D",
"0  c #A0DF88",
"q  c #8AC876",
"w  c #90CF7B",
"e  c #A5E58A",
"r  c #A6E68A",
"t  c #A6E68C",
"y  c #A8E78D",
"u  c #A7E68B",
"i  c #9FDE86",
"p  c #9CDC84",
"a  c #A6E58B",
"s  c #A7E88B",
"d  c #A0E089",
"f  c #8AC978",
"g  c #92D07F",
"h  c #A5E58D",
"j  c #A2E188",
"k  c #9BDA83",
"l  c #A1E187",
"z  c #A6E78C",
"x  c #A6E78A",
"c  c #A9E78D",
"v  c #8FCE78",
"b  c #88C873",
"n  c #A3E28C",
"m  c #A7E78E",
"M  c #A8E78C",
"N  c #A1E08C",
"B  c #8AC87B",
"V  c #92D182",
"C  c #A5E68F",
"Z  c #99D883",
"A  c #85C46E",
"S  c #98D77F",
"D  c #A7E88E",
"F  c #A7E68A",
"G  c #97D77F",
"H  c #93D27D",
"J  c #9EDC8A",
"K  c #9FDE8A",
"L  c #8BC87D",
"P  c #92D081",
"I  c #A5E58E",
"U  c #A4E48B",
"Y  c #9FDE89",
"T  c #99D787",
"R  c #92D07D",
"E  c #9DDC85",
"W  c #A2E28B",
"Q  c #8ECC7B",
"!  c #8BC976",
"~  c #A4E488",
"^  c #88C679",
"/  c #91CF7C",
"(  c #A7E68D",
")  c #9CDB85",
"_  c #86C474",
"`  c #96D484",
"'  c #A6E590",
"]  c #A5E58C",
"[  c #A7E88C",
"{  c #94D37F",
"}  c #91D07B",
"|  c #A5E588",
" . c #A3E38C",
".. c #91D07E",
"X. c #97D780",
"o. c #9EDD87",
"O. c #8FCC7B",
"+. c #9CDA85",
"@. c #A8E78E",
"#. c #A6E689",
"$. c #A6E58D",
"%. c #A5E48B",
"&. c #A8E68B",
"*. c #A8E68D",
"=. c #A5E48C",
"-. c #A6E68D",
";. c #A7E589",
":. c #A7E689",
">. c #A7E887",
",. c #A8E789",
"<. c #A9E887",
"1. c #A8E787",
"2. c #A8E788",
"3. c #A8E887",
"4. c #A8E689",
"5. c #A9E78C",
"6. c #A9E78A",
"7. c #A9E78B",
"8. c #A9E68B",
"9. c #A6E789",
"0. c #A8E688",
"q. c #A9E88A",
"w. c #A6E788",
"e. c #A9E789",
"r. c #9CDC83",
"t. c #92D17A",
"y. c #9EDE84",
"u. c #A7E687",
"i. c #A7E588",
"p. c #A7E690",
"a. c #A7E58E",
"s. c #97D782",
"d. c #88C673",
"f. c #99D882",
"g. c #A7E58C",
"h. c #A7E68E",
"j. c #A2E189",
"k. c #94D281",
"l. c #9BD884",
"z. c #98D785",
"x. c #88C677",
"c. c #99D784",
"v. c #A8E68E",
"b. c #99D781",
"n. c #95D37E",
"m. c #A8E98A",
"M. c #9FDF86",
"N. c #86C573",
"B. c #91D07D",
"V. c #A7E68F",
"C. c #97D685",
"Z. c #88C676",
"A. c #98D784",
"S. c #A8E78F",
"D. c #A6E58E",
"F. c #90CE79",
"G. c #88C772",
"H. c #A3E389",
"J. c #9BDA85",
"K. c #99D885",
"L. c #97D681",
"P. c #9EDD85",
"I. c #9AD983",
"U. c #A6E68F",
"Y. c #9DDC86",
"T. c #97D680",
"R. c #9CDB84",
"E. c #A4E48A",
"W. c #A8E790",
"Q. c #9DDC87",
"!. c #84C46C",
"~. c #93D279",
"^. c #97D682",
"/. c #85C470",
"(. c #98D782",
"). c #A7E58F",
"_. c #90D078",
"`. c #85C46D",
"'. c #9FDE88",
"]. c #A8E88E",
"[. c #A2E18A",
"{. c #98D77E",
"}. c #9EDE83",
"|. c #97D57F",
" X c #A0DF87",
".X c #9EDD84",
"XX c #99D880",
"oX c #A3E28A",
"OX c #A9E98D",
"+X c #A7E88D",
"@X c #A8E989",
"#X c #A7E888",
"$X c #A6E787",
"%X c #A3E388",
"&X c #94D37E",
"*X c #89C873",
"=X c #A8E98C",
"-X c #A1E086",
";X c #94D280",
":X c #8AC878",
">X c #9EDD89",
",X c #A2E287",
"<X c #9BDB84",
"1X c #87C575",
"2X c #98D683",
"3X c #94D381",
"4X c #8AC879",
"5X c #9DDC88",
"6X c #8BCA76",
"7X c #8ECE79",
"8X c #8DCB79",
"9X c #97D584",
"0X c #A0E08A",
"qX c #A3E38A",
"wX c #94D283",
"eX c #A2E289",
"rX c #9FDE8B",
"tX c #91CF7E",
"yX c #93D17D",
"uX c #A4E48D",
"iX c #A7E78F",
"pX c #A6E58C",
"aX c #9AD984",
"sX c #89C876",
"dX c #9AD886",
"fX c #A7E592",
"gX c #88C776",
"hX c #9FDD89",
"jX c #A4E38D",
"kX c #8CCA7B",
"lX c #A2E08C",
"zX c #A7E886",
"xX c #9BDA82",
"cX c #8BCA78",
"vX c #8ECD76",
"bX c #A1E088",
"nX c #A5E58B",
"mX c #92D17C",
"MX c #8DCC7B",
"NX c #A4E38C",
"BX c #A6E687",
"VX c white",
/* pixels */
"                                                                                                                                ",
"                                                                                                                                ",
"                                                                                                                                ",
"                                                                                                                                ",
"                                                                                                                                ",
"                                                                                                                                ",
"                                                                                                                                ",
"                                                                                                                                ",
"                                                                                                                                ",
"                                                                                                                                ",
"                                                                                  .                                             ",
"X o   O                                                     . + @ o   O .     # o $ % . o & *   = @ o     = O O                 ",
"- o ; =                                                     # : @ % o = = * > , < 1 2 3 4 5 6 = @ o X % o = = 7                 ",
"8 o   = @                                                   ; @   o X & 9 X @   0 q w e   r & 9 % X X o o                       ",
"t X   = @                                                   % y o @ u i p a s % d f g h O 7 j k l z x =       o                 ",
"- @   ; @                                                   % c @ o t v b n m M N B V C @ % Z A S D X . 7 ; X X                 ",
"% @ = = X                                                     * F M t G H J K - N L P I U Y T R E 5 X . 7 @ X X                 ",
"o   = @ s                                                   # # X 9 & - W Q ! ~ N ^ / ( ) _ ` ' ] t X . 7 = o %                 ",
"o   = @ s                                                   # # o 9 X [ ] { } |  ...X.5 o.O.+.@.- - X o @ =   s                 ",
"o ; = @ X                                                     o   . = #.X $.%.&.*.=.e - -.$.;.:.X X X % X =   = ;               ",
"s =     @                                                   & y   >., ; X 6 * &.6 @ ; x s ,.<.1.    X X o     7 .               ",
"        = , O % 6 2.3.. o @ .   * 4.,.. ; @ @                 o . .         =     O =   = = . .                                 ",
"        . 7   % 5.6..   o o   % 6 6.,.. ; @ @                                                                                   ",
"            % s &.7.o o o o o % M 7.* o o s                                                                                     ",
"          % X = > 7.M % X @ X o o 8.u X X s                                                                                     ",
"          @ 9., 0.8.y % X r X o q.6.F 4 @ = .                                                                                   ",
"        =   = w.4.6.6 X X e & ; 2.e.:.r @ O .                                                                                   ",
"        = O X - 6 :.= X r.t.y.o u.i.&.- X   =                                                                                   ",
"        . w.- p.a.> = & s.d.f.& @ &.g.h.t X ;                                                                                   ",
"        . O j.k.l.5.,.5 z.x.c.h.c v.b.n.j.M @                                                                                   ",
"        O m.M.N.B.$.X V.C.Z.A.p.S.D.F.G.0 9 @                                                 . = @ @ ; = = ; @                 ",
"        .   H.J.K.L.P.p.z.q I.U.Y.T.f.R.E.o @                                                 . O @ % s =   s @ . .             ",
"          w.- W.Q.!.~.V.^./.(.)._.`.'.].X 9.;                                                   o % % o     % X O .             ",
"        . 7 r m [.{.}.5 0 |. X( .XXXoX5 r = O                                                 ; X X X @ . = X & @ = ;           ",
"        . O @ t 5 OXX r & ].& - X 9 +Xr @ O O                                             ; = @ X X X O @XO X % @ = =           ",
"          w.; X u s     X & X = 9.s X X O #XO                                         =     = 9.@ o @ = $X7 ; X @ @ ;           ",
"          =     @         % s O     X o . 7 ;                                         =       O   @ & X #.$X. ; X X ;           ",
"          @           ; = @ x O   @ % %   = ;                                         ; = = = O O t 0 r.%X9.7 = X X o           ",
"          X @     @ @ x 9.x @ O 7 @ % % X @                                                 m.O @ $.&X*Xo.5 @ ; o =Xo           ",
"          o @ .   @ x x x 9.; O 7 @ % s @                                     . o o . = ~ -X~ ; = ] ;X:X>X( #.#.-X,Xr           ",
"                                                                            . >.[ 9 7 ; <X1X2X% 7 $.3X4X5Xr   E.6X7XU & =     @ ",
"                                                                              #X; M r M Y.8X9X0XqX' wX4X>X-.eXrXtXyXuX% =     @ ",
"                                                                            o o #X7 M iXt pXaXsXdXfXk.gXhXjX/ kXlXuX-.@ O     o ",
"                                                                            o % >.zXy h.M o xXcXJ.V.G vXbXnXmXMX .].X 7 .     o ",
"                                                                            o % O , & ].@ = nXoXe ; | %X@ 3 %XNX- @ @ . #XO   o ",
"                                                                              @ o 9.@ o = = % X 7 #Xo 9 X 7 . % @ =   . = =   o ",
"                                                                              = s X . . @ X = 9.7 7 X m ( = w.X         = =     ",
"                                                                              = X % . . @ X =   o = @ @.5 @ = X o   ;   ;       ",
"                                                                                o o @ O   = = % 9 = 7 @ @ = = X X @ @ @ o     = ",
"                                                                                  o @     ; ; o o . 7 = O O O o s @ ; @ o       ",
"                                                                                                                                ",
"                                                                                                                                ",
"                                                                                                                                ",
"                                                                                                                                ",
"                                                                                                                                ",
"                                                                                                                                ",
"                                                                                                                                ",
"                                                                                                                                ",
"  ;     o                                                     O       O .   ; .   o     . O @ o       ;                         ",
"= = ; o o                                                   #X,   o @ w.>.= @ 7 . & 6 ,.3.BXr o     o X s o   =                 ",
"& o                                                         .   % & @ . # = @ O O o 6 ,., 7 X s ;     % % o   =                 ",
"%   . .                                                       s 9 M X = = = @   =   @ = 7   ; #.= = =   o     =                 ",
"= 7 # .                                                     O @ % % X @ = = @ s   = ; o @ @ O O   @ = = = = ;                   ",
"7 7 O   s                                                     = @ X X @   = = @ @ #.@ X X #.= m.    9.= = =                     "
};
