/* XPM */
static char *key_20_282_29[] = {
/* columns rows colors chars-per-pixel */
"64 64 231 2 ",
"   c black",
".  c #020200",
"X  c #000303",
"o  c #050302",
"O  c #040303",
"+  c #050303",
"@  c #0E0B01",
"#  c #0F0C01",
"$  c #170101",
"%  c #190303",
"&  c #100C01",
"*  c #100D01",
"=  c #110D01",
"-  c #120E01",
";  c #181203",
":  c #1A1500",
">  c #1C1600",
",  c #1D1700",
"<  c #1E1700",
"1  c #181307",
"2  c #1E1800",
"3  c #1F1800",
"4  c #1E1804",
"5  c #181B1B",
"6  c #1D1C1B",
"7  c #2D0404",
"8  c #2E0504",
"9  c #300706",
"0  c #201902",
"q  c #201A02",
"w  c #221A02",
"e  c #241C02",
"r  c #2E1E11",
"t  c #2D1E13",
"y  c #2E1F13",
"u  c #2D1E14",
"i  c #341E1E",
"p  c #292001",
"a  c #2D2301",
"s  c #382C00",
"d  c #392D00",
"f  c #342314",
"g  c #352314",
"h  c #342316",
"j  c #3B2A12",
"k  c #3E2C14",
"l  c #3F2C14",
"z  c #39341F",
"x  c #3A341F",
"c  c #551F16",
"v  c #502815",
"b  c #59231A",
"n  c #463211",
"m  c #483411",
"M  c #483413",
"N  c #4F3913",
"B  c #4E3917",
"V  c #5A3314",
"C  c #5B3314",
"Z  c #5A3414",
"A  c #5D3717",
"S  c #543F12",
"D  c #47392C",
"F  c #4E3E2E",
"G  c #4E3F32",
"H  c #574115",
"J  c #574116",
"K  c #685205",
"L  c #685206",
"P  c #685306",
"I  c #695306",
"U  c #6B5506",
"Y  c #6D5606",
"T  c #755D07",
"R  c #765D07",
"E  c #775E07",
"W  c #775F07",
"Q  c #705809",
"!  c #604811",
"~  c #624911",
"^  c #614A11",
"/  c #796007",
"(  c #7C6108",
")  c #7D620A",
"_  c #7E630A",
"`  c #B01615",
"'  c #BF1517",
"]  c #B21817",
"[  c #B61D17",
"{  c #B91E15",
"}  c #BA1F15",
"|  c #B81F19",
" . c #C01517",
".. c #C11617",
"X. c #C31919",
"o. c #C71A18",
"O. c #C4191A",
"+. c #C91C19",
"@. c #CA2E16",
"#. c #D02218",
"$. c #D63715",
"%. c #E02E17",
"&. c #CB3230",
"*. c #CD3332",
"=. c #CC3430",
"-. c #CE3631",
";. c #DB3030",
":. c #DC3232",
">. c #DF3434",
",. c #E03536",
"<. c #87580C",
"1. c #95570C",
"2. c #826706",
"3. c #836806",
"4. c #856905",
"5. c #846806",
"6. c #846906",
"7. c #856906",
"8. c #846907",
"9. c #856A06",
"0. c #866A06",
"q. c #876A06",
"w. c #876B06",
"e. c #876B08",
"r. c #896C08",
"t. c #896D08",
"y. c #8B6F08",
"u. c #9B6C09",
"i. c #9C6C09",
"p. c #9D6D09",
"a. c #9D6E09",
"s. c #947507",
"d. c #957507",
"f. c #957607",
"g. c #967607",
"h. c #967707",
"j. c #977707",
"k. c #987807",
"l. c #A17F07",
"z. c #846E22",
"x. c #8D7423",
"c. c #967D26",
"v. c #9F8006",
"b. c #A08006",
"n. c #A18006",
"m. c #A28006",
"M. c #A38006",
"N. c #A38106",
"B. c #A48821",
"V. c #C79B00",
"C. c #C79C00",
"Z. c #C89C00",
"A. c #C89D00",
"S. c #C99D00",
"D. c #C99E00",
"F. c #D5A600",
"G. c #D5A700",
"H. c #D4A601",
"J. c #D5A701",
"K. c #D3A205",
"L. c #D4A205",
"P. c #DAAA01",
"I. c #DEAD01",
"U. c #DEAD03",
"Y. c #E0AF00",
"T. c #E1B000",
"R. c #E1B001",
"E. c #E1B101",
"W. c #E2B000",
"Q. c #E2B100",
"!. c #E3B100",
"~. c #E3B200",
"^. c #E2B102",
"/. c #E3B202",
"(. c #E4B200",
"). c #E4B300",
"_. c #E5B300",
"`. c #E6B202",
"'. c #E7B400",
"]. c #E6B402",
"[. c #E7B402",
"{. c #E7B502",
"}. c #EBB700",
"|. c #E8B502",
" X c #E9B602",
".X c #EBB702",
"XX c #EFBB01",
"oX c #ECB802",
"OX c #EFBC01",
"+X c #FBB303",
"@X c #FAB403",
"#X c #F1BC01",
"$X c #F1BD01",
"%X c #F2BD01",
"&X c #F1BE01",
"*X c #F3BE01",
"=X c #F4BD01",
"-X c #F4BF01",
";X c #F3BF04",
":X c #E2B71B",
">X c #E5BA1F",
",X c #E9BB1E",
"<X c #EABA1E",
"1X c #EBBB1E",
"2X c #EABC1D",
"3X c #E9BC1E",
"4X c #FCC500",
"5X c #FDC500",
"6X c #FDC600",
"7X c #FEC700",
"8X c #FFC700",
"9X c #FFC800",
"0X c #FFCE1B",
"qX c #C5C8C8",
"wX c #D9D4CA",
"eX c #E1CBCB",
"rX c #F7CECE",
"tX c #E1DBC6",
"yX c #F9DECA",
"uX c #E8E0C9",
"iX c #EFE8C8",
"pX c #F4EAC7",
"aX c #E5E5E3",
"sX c #E7E6E6",
"dX c #E8E6E6",
"fX c #FBE4E7",
"gX c #FBE5E7",
"hX c #F0EFE4",
"jX c #F1EFE4",
"kX c #FDF8E3",
"lX c None",
/* pixels */
"lXlXlXlXlXlXlXlXlXlXlXlXlXlXlXlXlXlXlXlXlXlXlXlXlXlXlXlXlXlXlXlXlXlXlXlXlXlXlXlXlXlXlXlXlXlXlXlXlXlXlXlXlXlXlXlXlXlXlXlXlXlXlXlX",
"lXlXlXlXlXlXlXlXlXlXlXlXlXlXlXlXlXlXlXlXlXlXlXlXlXlXlXlXlXlXlXlXlXlXlXlXlXlXlXlXlXlXlXlXlXlXlXlXlXlXlXlXlXlXlXlXlXlXlXlXlXlXlXlX",
"lXlXlXlXlXlXlXlXlXlXlXlXlXlXlXlXlXlXlXlXlXlXlXlXlXlXlXlXlXlXlXlXlXlXlXlXlXlXlXlXlXlXlXlXlXlXlXlXlXlXlXlXlXlXlXlXlXlXlXlXlXlXlXlX",
"lXlXlXlXlXlXlXlXlXlXlXlXlXlXlXlXlXlXlXlXlXlXlXlXlXlXlXlXlXlXlXlXlXlXlXlXlXlXlXlXlXlXlXlXlXlXlXlXlXlXlXlXlXlXlXlXlXlXlXlXlXlXlXlX",
"lXlXlXlXlXlXlXlXlXlXlXlXlXlXlXlXlXlXlXlXlXlXlXlXlXlXlXlXlXlXlXlXlXlXlXlXlXlXlXlXlXlXlXlXlXlXlXlXlXlXlXlXlXlXlXlXlXlXlXlXlXlXlXlX",
"lXlXlXlXlXlXlXlXlXlXlXlXlXlXlXlXlXlXlXlXlXlXlXlXlXlXlXlXlXlXlXlXlXlXlXlXlXlXlXlXlXlXlXlXlXlXlXlXlXlXlXlXlXlXlXlXlXlXlXlXlXlXlXlX",
"lXlXlXlXlXlXlXlXlXlXlXlXlXlXlXlXlXlXlXlXlXlXlXlXlXlXlXlXlXlXlXlXlXlXlXlXlXlXlXlXlXlXlXlXlXlXlXlXlXlXlXlXlXlXlXlXlXlXlXlXlXlXlXlX",
"lXlXlXlXlXlXlXlXlXlXlXlXlXlXlXlXlXlXlXlXlXlXlXlXlXlXlXlXlXlXlXlXlXlXlXlXlXlXlXlXlXlXlXlXlXlXlXlXlXlXlXlXlXlXlXlXlXlXlXlXlXlXlXlX",
"lXlXlXlXlXlXlXlXlXlXlXlXlXlXlXlXlXlXlXlXlXlXlXlXlXlXlXlXlXlXlXlXlXlXlXlXlXlXlXlXlXlXlXlXlXlXlXlXlXlXlXlXlXlXlXlXlXlXlXlXlXlXlXlX",
"lXlXlXlXlXlXlXlXlXlXlXlXlXlXlXlXlXlXlXlXlXlXlXlXlXlXlXlXlXlXlXlXlXlXlXlXlXlXlXlXlXlXlXlXlXlXlXlXlXlXlXlXlXlXlXlXlXlXlXlXlXlXlXlX",
"lXlXlXlXlXlXlXlXlXlXlXlXlXlXlXlXlXlXlXlXlXlXlXlXlXlXlXlXlXlXlXlXlXlXlXlXlXlXlXlXlXlXlXlXlXlXlXlXlXlXlXlXlXlXlXlXlXlXlXlXlXlXlXlX",
"lXlXlXlXlXlXlXlXlXlXlXlXlXlXlXlXlXlXlXlXlXlXlXlXlXlXlXlXlXlXlXlXlXlXlXlXlXlXlXlXlXlXlXlXlXlXlXlXlXlXlXlXlXlXlXlXlXlXlXlXlXlXlXlX",
"lXlXlXlXlXlXlXlXlXlXlXlXlXlXlXlXlXlXlXlXlXlXlXlXlXlXlXlXlXlXlXlXlXlXlXlXlXlXlXlXlXlXlXlXlXlXlXlXlXlXlXlXlXlXlXlXlXlXlXlXlXlXlXlX",
"lXlXlXlXlXlXlXlXlXlXlXlXlXlXlXlXlXlXlXlXlXlXlXlXlXlXlXlXlXlXlXlXlXlXlXlXlXlXlXlXlXlXlXlXlXlXlXlXlXlXlXlXlXlXlXlXlXlXlXlXlXlXlXlX",
"lXlXlXlXlXlXlXlXlXlXlXlXlXlXlXlXlXlXlXlXlXlXlXlXlXlXlXlXlXlXlXlXlXlXlXlXlXlXlXlXlXlXlXlXlXlXlXlXlXlXlXlXlXlXlXlXlXlXlXlXlXlXlXlX",
"lXlXlXlXlXlXlXlXlXlXlXlXlXlXlXlXlXlXlXlXlXlXlXlXlXlXlXlXlXlXlXlXlXlXlXlXlXlXlXlXlXlXlXlXlXlXlXlXlXlXlXlXlXlXlXlXlXlXlXlXlXlXlXlX",
"lXlXlXlXlXlXlXlXlXlXlXlXlXlXlXlXlXlXlXlXlXlXlXlXlXlXlXlXlXlXlXlXlXlXlXlXlXlXlXlXlXlXlXlXlXlXlXlXlXlXlXlXlXlXlXlXlXlXlXlXlXlXlXlX",
"lXlXlXlXlXlXlXlXlXlXlXlXlXlXlXlXlXlXlXlXlXlXlXlXlXlXlXlXlXlXlXlXlXlXlXlXlXlXlXlXlXlXlXlXlXlXlXlXlXlXlXlXlXlXlXlXlXlXlXlXlXlXlXlX",
"lXlXlXlXlXlXlXlXlXlXlXlXlXlXlXlXlXlXlXlXlXlXlXlXlXlXlXlXlXlXlXlXlXlXlXlXlXlXlXlXlXlXlXlXlXlXlXlXlXlXlXlXlXlXlXlXlXlXlXlXlXlXlXlX",
"lXlXlXlXlXlXlXlXlXlXlXlXlXlXlXlXlXlXlXlXlXlXlXlXlXlXlXlXlXlXlXlXlXlXlXlXlXlXlXlXlXlXlXlXlXlXlXlXlXlXlXlXlXlXlXlXlXlXlXlXlXlXlXlX",
"lXlXlXlXlXlXlXlXlXlXlXlXlXlXlXlXlXlXlXlXt.W *   lXlXlXlXlXlXlXlXlXlXlXlXlXlXlXlX  * W t.lXlXlXlXlXlXlXlXlXlXlXlXlXlXlXlXlXlXlXlX",
"lXlXlXlXlXlXlXlXlXlXlXlXlXlXlXlXlXlXlXlX_ Q *   lXlXlXlXlXlXlXlXlXlXlXlXlXlXlXlX  * Q _ lXlXlXlXlXlXlXlXlXlXlXlXlXlXlXlXlXlXlXlX",
"lXlXlXlXlXlXlXlXlXlXlXlXlXlXlXlXlXlXe.) n n lXlXlXlXlXlXlXlXlXlXlXlXlXlXlXlXlXlXlXlXn n _ e.lXlXlXlXlXlXlXlXlXlXlXlXlXlXlXlXlXlX",
"lXlXlXlXlXlXlXlXlXlXlXlXlXlXlXlXlXlXs.e.j y lXlXlXlXlXlXlXlXlXlXlXlXlXlXlXlXlXlXlXlXu j t.d.lXlXlXlXlXlXlXlXlXlXlXlXlXlXlXlXlXlX",
"lXlXlXlXlXlXlXlXlXlXlXlXlXlXlXlXh B I.F.w O lXlXlXlX  O u l _ 4.e._ l u o   lXlXlXlXo w F.I.S h lXlXlXlXlXlXlXlXlXlXlXlXlXlXlXlX",
"lXlXlXlXlXlXlXlXlXlXlXlXlXlXlXlXh B ,X:X4   lXlXlXlX* ; n J x.c.c.x.J m e > lXlXlXlX  4 >X3XB g lXlXlXlXlXlXlXlXlXlXlXlXlXlXlXlX",
"lXlXlXlXlXlXlXlXlXlXlXlXlXlXlXlXg F uXtX6   lXlX  # K e.P.3XiXhXhXiX,X'.R.A.>   lXlX  6 wXuXF g lXlXlXlXlXlXlXlXlXlXlXlXlXlXlXlX",
"lXlXlXlXlXlXlXlXlXlXlXlXlXlXlXlXg G dXaXz > lXlX> a y.k.I.1XyXgXfXyX,X X9X`.d > lXlX> z aXdXF g lXlXlXlXlXlXlXlXlXlXlXlXlXlXlXlX",
"lXlXlXlXlXlXlXlXlXlXlXlXlXlXlXlXg G aXkX>XZ.: : A.`.$XU.~ A -.>.>.=.A ~ oX9X`.C.: : C.>XkXdXG g lXlXlXlXlXlXlXlXlXlXlXlXlXlXlXlX",
"lXlXlXlXlXlXlXlXlXlXlXlXlXlXlXlXy D wXpX0X`.s d '.5XoXL.Z c ` X.;.&.b V K. X9X'.d d '.0XpXwXD y lXlXlXlXlXlXlXlXlXlXlXlXlXlXlXlX",
"lXlXlXlXlXlXlXlXlXlXlXlXlXlXlXlXo 1 z.B.;X5X`.`.4X X~ V | ] 7 i eXrX=.[ V !  X4XR.R.5X$XB.z.1 o lXlXlXlXlXlXlXlXlXlXlXlXlXlXlXlX",
"lXlXlXlXlXlXlXlXlXlXlXlXlXlXlXlX  # K 4.R.$X$X$X9X'.S v +. .$ 5 qXeX:.o.v H  X5X4X$X$XR.4.K #   lXlXlXlXlXlXlXlXlXlXlXlXlXlXlXlX",
"lXlXlXlXlXlXlXlXlXlXlXlXlXlXlXlXlXlX# 0 4.k.j.n.$XOXt.<.#. .% X 5 i O.#.<.y.$X-Xn.d.k.q.w # lXlXlXlXlXlXlXlXlXlXlXlXlXlXlXlXlXlX",
"lXlXlXlXlXlXlXlXlXlXlXlXlXlXlXlXlXlX  # I R R 4./.{.N.p.@.} 9 % $ 8 } @.p.l.'.R.3.W W K #   lXlXlXlXlXlXlXlXlXlXlXlXlXlXlXlXlXlX",
"lXlXlXlXlXlXlXlXlXlXlXlXlXlXlXlXlXlXlXlX* * # w e.n.{.`.u.1.} ' ' ' 1.u.`.{.n.q.w @ * * lXlXlXlXlXlXlXlXlXlXlXlXlXlXlXlXlXlXlXlX",
"lXlXlXlXlXlXlXlXlXlXlXlXlXlXlXlXlXlXlXlX      * P 4./.'.v.p.$.%.$.$.p.n.{.`.4.K *       lXlXlXlXlXlXlXlXlXlXlXlXlXlXlXlXlXlXlXlX",
"lXlXlXlXlXlXlXlXlXlXlXlXlXlXlXlXlXlXlXlXlXlXlXlX# 0 e.l.'.$X@X@X@X@X-X XN.3.4 # lXlXlXlXlXlXlXlXlXlXlXlXlXlXlXlXlXlXlXlXlXlXlXlX",
"lXlXlXlXlXlXlXlXlXlXlXlXlXlXlXlXlXlXlXlXlXlXlXlX  # K 3.H.`.$X$X$XoX`.F.e.L #   lXlXlXlXlXlXlXlXlXlXlXlXlXlXlXlXlXlXlXlXlXlXlXlX",
"lXlXlXlXlXlXlXlXlXlXlXlXlXlXlXlXlXlXlXlXlXlXlXlXlXlX* * > a 4.j.d.q.a > * * lXlXlXlXlXlXlXlXlXlXlXlXlXlXlXlXlXlXlXlXlXlXlXlXlXlX",
"lXlXlXlXlXlXlXlXlXlXlXlXlXlXlXlXlXlXlXlXlXlXlXlXlXlX      @ R r.d.3.*       lXlXlXlXlXlXlXlXlXlXlXlXlXlXlXlXlXlXlXlXlXlXlXlXlXlX",
"lXlXlXlXlXlXlXlXlXlXlXlXlXlXlXlXlXlXlXlXlXlX    lXlXlXlX  * R j.'.F.4   lXlXlXlXlXlXlXlXlXlXlXlXlXlXlXlXlXlXlXlXlXlXlXlXlXlXlXlX",
"lXlXlXlXlXlXlXlXlXlXlXlXlXlXlXlXlXlXlXlXlXlX    lXlXlXlX  * R j.$XR.4   lXlXlXlXlXlXlXlXlXlXlXlXlXlXlXlXlXlXlXlXlXlXlXlXlXlXlXlX",
"lXlXlXlXlXlXlXlXlXlXlXlXlXlXlXlXlXlXlXlXlXlX  # W / #     # W j.$XR.4   lXlXlXlXlXlXlXlXlXlXlXlXlXlXlXlXlXlXlXlXlXlXlXlXlXlXlXlX",
"lXlXlXlXlXlXlXlXlXlXlXlXlXlXlXlXlXlXlXlXlXlX  * U Y p 4 > a 4.n.4XR.4   lXlXlXlXlXlXlXlXlXlXlXlXlXlXlXlXlXlXlXlXlXlXlXlXlXlXlXlX",
"lXlXlXlXlXlXlXlXlXlXlXlXlXlXlXlXlXlXlXlXlXlXlXlX@ p A.R.R.`.#X$X5XI.4   lXlXlXlXlXlXlXlXlXlXlXlXlXlXlXlXlXlXlXlXlXlXlXlXlXlXlXlX",
"lXlXlXlXlXlXlXlXlXlXlXlXlXlXlXlXlXlXlXlXlXlXlXlX  4 A.`.R.`.oX-X9XI.4   lXlXlXlXlXlXlXlXlXlXlXlXlXlXlXlXlXlXlXlXlXlXlXlXlXlXlXlX",
"lXlXlXlXlXlXlXlXlXlXlXlXlXlXlXlXlXlXlXlXlXlXlXlXlXlX4 4 4 a 4.N.-XR.4   lXlXlXlXlXlXlXlXlXlXlXlXlXlXlXlXlXlXlXlXlXlXlXlXlXlXlXlX",
"lXlXlXlXlXlXlXlXlXlXlXlXlXlXlXlXlXlXlXlXlXlXlXlXlXlX      # R j.$XR.4   lXlXlXlXlXlXlXlXlXlXlXlXlXlXlXlXlXlXlXlXlXlXlXlXlXlXlXlX",
"lXlXlXlXlXlXlXlXlXlXlXlXlXlXlXlXlXlXlXlXlXlXlXlXlXlXlXlX  * W k.-X`.4   lXlXlXlXlXlXlXlXlXlXlXlXlXlXlXlXlXlXlXlXlXlXlXlXlXlXlXlX",
"lXlXlXlXlXlXlXlXlXlXlXlXlXlXlXlXlXlXlXlXlXlXlXlXlXlXlXlX  * K 4.F.A.>   lXlXlXlXlXlXlXlXlXlXlXlXlXlXlXlXlXlXlXlXlXlXlXlXlXlXlXlX",
"lXlXlXlXlXlXlXlXlXlXlXlXlXlXlXlXlXlXlXlXlXlXlXlXlXlXlXlXlXlX* * 4 4 lXlXlXlXlXlXlXlXlXlXlXlXlXlXlXlXlXlXlXlXlXlXlXlXlXlXlXlXlXlX",
"lXlXlXlXlXlXlXlXlXlXlXlXlXlXlXlXlXlXlXlXlXlXlXlXlXlXlXlXlXlX        lXlXlXlXlXlXlXlXlXlXlXlXlXlXlXlXlXlXlXlXlXlXlXlXlXlXlXlXlXlX",
"lXlXlXlXlXlXlXlXlXlXlXlXlXlXlXlXlXlXlXlXlXlXlXlXlXlXlXlXlXlXlXlXlXlXlXlXlXlXlXlXlXlXlXlXlXlXlXlXlXlXlXlXlXlXlXlXlXlXlXlXlXlXlXlX",
"lXlXlXlXlXlXlXlXlXlXlXlXlXlXlXlXlXlXlXlXlXlXlXlXlXlXlXlXlXlXlXlXlXlXlXlXlXlXlXlXlXlXlXlXlXlXlXlXlXlXlXlXlXlXlXlXlXlXlXlXlXlXlXlX",
"lXlXlXlXlXlXlXlXlXlXlXlXlXlXlXlXlXlXlXlXlXlXlXlXlXlXlXlXlXlXlXlXlXlXlXlXlXlXlXlXlXlXlXlXlXlXlXlXlXlXlXlXlXlXlXlXlXlXlXlXlXlXlXlX",
"lXlXlXlXlXlXlXlXlXlXlXlXlXlXlXlXlXlXlXlXlXlXlXlXlXlXlXlXlXlXlXlXlXlXlXlXlXlXlXlXlXlXlXlXlXlXlXlXlXlXlXlXlXlXlXlXlXlXlXlXlXlXlXlX",
"lXlXlXlXlXlXlXlXlXlXlXlXlXlXlXlXlXlXlXlXlXlXlXlXlXlXlXlXlXlXlXlXlXlXlXlXlXlXlXlXlXlXlXlXlXlXlXlXlXlXlXlXlXlXlXlXlXlXlXlXlXlXlXlX",
"lXlXlXlXlXlXlXlXlXlXlXlXlXlXlXlXlXlXlXlXlXlXlXlXlXlXlXlXlXlXlXlXlXlXlXlXlXlXlXlXlXlXlXlXlXlXlXlXlXlXlXlXlXlXlXlXlXlXlXlXlXlXlXlX",
"lXlXlXlXlXlXlXlXlXlXlXlXlXlXlXlXlXlXlXlXlXlXlXlXlXlXlXlXlXlXlXlXlXlXlXlXlXlXlXlXlXlXlXlXlXlXlXlXlXlXlXlXlXlXlXlXlXlXlXlXlXlXlXlX",
"lXlXlXlXlXlXlXlXlXlXlXlXlXlXlXlXlXlXlXlXlXlXlXlXlXlXlXlXlXlXlXlXlXlXlXlXlXlXlXlXlXlXlXlXlXlXlXlXlXlXlXlXlXlXlXlXlXlXlXlXlXlXlXlX",
"lXlXlXlXlXlXlXlXlXlXlXlXlXlXlXlXlXlXlXlXlXlXlXlXlXlXlXlXlXlXlXlXlXlXlXlXlXlXlXlXlXlXlXlXlXlXlXlXlXlXlXlXlXlXlXlXlXlXlXlXlXlXlXlX",
"lXlXlXlXlXlXlXlXlXlXlXlXlXlXlXlXlXlXlXlXlXlXlXlXlXlXlXlXlXlXlXlXlXlXlXlXlXlXlXlXlXlXlXlXlXlXlXlXlXlXlXlXlXlXlXlXlXlXlXlXlXlXlXlX",
"lXlXlXlXlXlXlXlXlXlXlXlXlXlXlXlXlXlXlXlXlXlXlXlXlXlXlXlXlXlXlXlXlXlXlXlXlXlXlXlXlXlXlXlXlXlXlXlXlXlXlXlXlXlXlXlXlXlXlXlXlXlXlXlX",
"lXlXlXlXlXlXlXlXlXlXlXlXlXlXlXlXlXlXlXlXlXlXlXlXlXlXlXlXlXlXlXlXlXlXlXlXlXlXlXlXlXlXlXlXlXlXlXlXlXlXlXlXlXlXlXlXlXlXlXlXlXlXlXlX"
};
