/* XPM */
static char *_bfcce44ac024320e000355ae45520698OfTTOk7VG1UpjUm[] = {
/* columns rows colors chars-per-pixel */
"64 64 231 2 ",
"   c None",
".  c #000001",
"X  c #070B06",
"o  c #130A06",
"O  c #180D0B",
"+  c #0B1D08",
"@  c #031707",
"#  c #0E0F10",
"$  c #141511",
"%  c #25180D",
"&  c #331D0F",
"*  c #281914",
"=  c #341D15",
"-  c #05270C",
";  c #073609",
":  c #063412",
">  c #073914",
",  c #12350F",
"<  c #3B2318",
"1  c #2D2111",
"2  c #001C2B",
"3  c #121F2D",
"4  c #322C25",
"5  c #142230",
"6  c #4D2B15",
"7  c #45281A",
"8  c #502D19",
"9  c #483B19",
"0  c #583319",
"q  c #6D3D1E",
"w  c #65371A",
"e  c #723E1D",
"r  c #4B2A21",
"t  c #5A3221",
"y  c #493425",
"u  c #653A22",
"i  c #753F20",
"p  c #0B420C",
"a  c #0A4C1A",
"s  c #084417",
"d  c #1C4413",
"f  c #0B551D",
"g  c #0C5C1F",
"h  c #155E1D",
"j  c #166B1F",
"k  c #2B6B1B",
"l  c #355025",
"z  c #0D6722",
"x  c #0E7B29",
"c  c #0D7726",
"v  c #117C29",
"b  c #127627",
"n  c #146A22",
"m  c #227427",
"M  c #2D6A26",
"N  c #0D5F20",
"B  c #504C14",
"V  c #6D411F",
"C  c #76411E",
"Z  c #5B4E22",
"A  c #5A4424",
"S  c #485924",
"D  c #5A5523",
"F  c #504A36",
"G  c #6C4522",
"H  c #754321",
"J  c #784624",
"K  c #7C4B26",
"L  c #7D4C2B",
"P  c #72572E",
"I  c #476324",
"U  c #5A7224",
"Y  c #50702E",
"T  c #6A7432",
"R  c #5F711B",
"E  c #35506D",
"W  c #3F6355",
"Q  c #6A5945",
"!  c #56744F",
"~  c #786E54",
"^  c #52516D",
"/  c #5E6278",
"(  c #5D4342",
")  c #8F7018",
"_  c #83542B",
"`  c #895A2E",
"'  c #8A5C36",
"]  c #814E27",
"[  c #976B39",
"{  c #9A7339",
"}  c #916536",
"|  c #A37A3F",
" . c #A6783C",
".. c #B07C3D",
"X. c #86541C",
"o. c #976B46",
"O. c #96704E",
"+. c #A17643",
"@. c #A47A42",
"#. c #A87C42",
"$. c #A37A56",
"%. c #857863",
"&. c #8B7770",
"*. c #A27F68",
"=. c #168029",
"-. c #1C8529",
";. c #1C8829",
":. c #0F802B",
">. c #278B28",
",. c #2D9329",
"<. c #3D9A27",
"1. c #309629",
"2. c #349A29",
"3. c #389B28",
"4. c #318D24",
"5. c #3CA129",
"6. c #4E8D27",
"7. c #6D9334",
"8. c #6C8E34",
"9. c #42A529",
"0. c #42A92A",
"q. c #79A818",
"w. c #738A53",
"e. c #778F74",
"r. c #8B920A",
"t. c #B19416",
"y. c #87BC14",
"u. c #B6B30F",
"i. c #86873A",
"p. c #89883A",
"a. c #929036",
"s. c #BD9D2F",
"d. c #AB853C",
"f. c #B59435",
"g. c #BA9A32",
"h. c #B99637",
"j. c #AF8A34",
"k. c #BEA12E",
"l. c #CAB519",
"z. c #C5AA29",
"x. c #CCB625",
"c. c #D2BD21",
"v. c #CDA937",
"b. c #C0953E",
"n. c #B7CD14",
"m. c #DACA1A",
"M. c #CADA0F",
"N. c #E0CE1C",
"B. c #E4D715",
"V. c #E7D806",
"C. c #C6E30B",
"Z. c #C8E60B",
"A. c #EDE50D",
"S. c #F4ED0A",
"D. c #FEFE00",
"F. c #F8F308",
"G. c #F6E915",
"H. c #ECE112",
"J. c #EED528",
"K. c #ECCD32",
"L. c #F0D42E",
"P. c #AC8347",
"I. c #B48947",
"U. c #AD8656",
"Y. c #B18A53",
"T. c #B8935D",
"R. c #849D63",
"E. c #989177",
"W. c #B8926A",
"Q. c #B18E6D",
"!. c #A2A46C",
"~. c #C39548",
"^. c #C08E45",
"/. c #D6A74E",
"(. c #DDAC52",
"). c #CFA04C",
"_. c #E1B34B",
"`. c #E1AE54",
"'. c #E4B155",
"]. c #C19B74",
"[. c #C8A47A",
"{. c #C5A26C",
"}. c #8CDC70",
"|. c #E8C240",
" X c #2C4E9B",
".X c #33529A",
"XX c #2E519E",
"oX c #3B5BA1",
"OX c #45619F",
"+X c #5870A8",
"@X c #727A94",
"#X c #73B382",
"$X c #7D8CB1",
"%X c #5FCF9B",
"&X c #02BAFF",
"*X c #00ADF0",
"=X c #7E94C4",
"-X c #9A9A9B",
";X c #818B97",
":X c #A9988D",
">X c #9CB2AD",
",X c #9FA39D",
"<X c #CCAB84",
"1X c #D6B58C",
"2X c #D8B58C",
"3X c #DAB98F",
"4X c #D2B187",
"5X c #DCBC94",
"6X c #C3AC9D",
"7X c #C6B7AE",
"8X c #DFC099",
"9X c #E2C39B",
"0X c #E0C191",
"qX c #EBCEA4",
"wX c #EACFAA",
"eX c #F2D6AD",
"rX c #F6DBB2",
"tX c #F9DEB4",
"yX c #ECD5B3",
"uX c #FFE6BD",
"iX c #FEE7BD",
"pX c #DCC4A2",
"aX c #D4D3D4",
"sX c #FFEAC2",
"dX c #FDE8C6",
"fX c #FFF0C7",
"gX c #FEF9EC",
"hX c #FFFFFE",
"jX c #FFFBF4",
"kX c #E2E4E9",
"lX c #D0D8E9",
/* pixels */
"                                                                                                                                ",
"                                                                                                                                ",
"                                                                                                                                ",
"                                                                                                                                ",
"                                                                                                                                ",
"                                        . . . f v v v v v v v v v v z X . .                                                     ",
"                                        . . . f v x x x x v x v x v z . . .                                                     ",
"                                    . . > a a >.1.1.1.,.,.1.,.,.,.,.>.f a s . .                                                 ",
"                                  . . . f v v 2.9.9.9.9.9.9.9.9.9.9.3.=.=.z . . .                                               ",
"                                  - - - N v v >.2.1.1.1.1.1.1.1.2.1.1.v v z - : -                                               ",
"                              . . s v x x v v x v v v x v v v v x x x v v v v v f . . .                                         ",
"                            X @ X a =.-.=.=.=.=.-.v =.=.=.=.-.v =.=.=.=.=.=.=.=.z X @ X                                         ",
"                        . . : b c >.3.5.5.5.5.5.3.5.5.5.9.<.3.5.5.5.5.5.5.5.<.5.,.n b s . .                                     ",
"                        . . : v x >.9.9.9.9.9.9.9.9.9.9.9.9.9.9.9.9.0.0.9.9.9.9.2.x =.a . . .                                   ",
"                        . . d 2.2.8.p.i.n.C.C.C.C.C.a.p.8.p.i.a.M.C.n.p.i.i.i.p.8.2.2.h . . .                                   ",
"                        . . d 5.9.8.#.+.N.D.D.D.D.D.h.@.+.P.@.j.F.D.S.P.+.@.@.#.p.5.0.k . . .                                   ",
"                      + : : M 7.7.p.@.@.m.D.D.B.m.m.x.x.z.d.@.d.F.D.F.x.x.k.@.#.p.7.7.Y : : -                                   ",
"                  . . : x x Y @.#.#.@.@.m.D.D.k.O.d.A.D.D.j.@.d.F.D.D.D.D.A.P.+.#.#.#.T x :.s . .                               ",
"                  o O , m m T P.#.d.h.j.N.S.S.x.j.f.B.A.A.k.f.g.A.S.S.A.A.B.f.f.j.#.#.T m m d o O 4                             ",
"      P.@.Y.4X3XW.u i G G G { (.`.J.D.D.K.`.(.G.D.F.g.d.d.A.D.S._.'./.d.d.s.F.D.B.#.@.} G G V V q $.1X1XT.| @.                  ",
"      @.| Y.4X3XW.K J J C e  ._.`.J.D.D.K.`.`.G.D.F.g.+.#.S.D.D._.(.).P.#.g.F.D.B.P.d.} H C H J C U.1X1XT.+.@.                  ",
"      K K o.eXrXeX5XqXW.[ [ z.G.S.c.h.h.N.G.G.z.f.f.d.@.d.S.D.F.h.I.I.[.[.{.g.g.z.B.A.l.[ [ W.9X8XwXrXrXU.K L                   ",
"      H u o.iXsXsXsXsX0X#.@.l.D.D.x.+.+.m.D.D.k.+.+.@.@.d.A.D.F.j.P.P.1X1X[.@.@.k.D.D.B.#.| [.uXsXsXsXsX$.e i                   ",
"          ' W.W.[.qXqX[.` ` j.c.c.v.~.~.B.D.D.B.l.m.).~.~.t.t.t.T.W.W.qXwX3X#.@.h.L.L.v.#. .{.qXqX<XW.W.O.                      ",
"            e q ' 4X1XU.e e _  .+.~.'.'.G.D.D.D.D.D.|.`.(.] q J <X1X5XuXiXqXP.{ I.`.`.~.#.@.{.4X2X$.q q                         ",
"            H e O.>X>XE.) ) [ [ [ I.(.(.J.G.G.H.B.H.v.~.I.o.' o.3X8X9XuXiXwXY.Y.Y.^.^.b.g.s.!.>X>X%.e H                         ",
"                  &X&X%XD.D.u.i H ..'.(.(.`._.I.| | L i L ].1X1XuXuXuXiXiXrX3X1XW.e u t.D.D.}.&X&X                              ",
"                  *X&X%XD.F.l.i H  .).)././.(.P.| +._ J _ [.2X5XrXuXtXrXrXqX<X<XQ.i i t.D.D.}.*X*X                              ",
"                  2 2 R D.D.c.[ { A % % P I.P.' K K W.[.<XwXtXrX0X0X<Xo.' L * $ y { [ z.D.D.r.2 2                               ",
"                  . . R D.D.m.@.#.9 . . G P.@.L e H W.1X1XuXiXtX3X2X:XH G 0 . . =  .@.z.D.D.r.. .                               ",
"                  . . B K.K.s._ ` &.-X-X@X/ / P C H 1XeXwXuXiXrX$.o.O.^ ^ / -X-XE.] _ j.K.L.) . .                               ",
"                  . . A '.'...i e 6XhXhX$XXXXX( q C 8XsXiXiXiXeX] e u XXXX+XhXhXaXi e [ '.'.P . .                               ",
"                  . . 9 { { P 6 6 :XgXgX;X X.X/ *.Q.wXsXiXiXiXrXQ.*.&..X X+XgXgXpX8 6 G { { Z . .                               ",
"                        . . . . . %.sXiX$X X.XlXhXhXdXiXuXiXiXsXhXhXkXoX X+XuXsX:X. . . . . .                                   ",
"                        . . . . . %.tXrX;XOXOXlXjXjXdXiXuXuXuXsXjXjXkX+XOX@XeXrX:XX . . . .                                     ",
"                            . . . G Y.U.6XdXyXuXdXdXiXuXuXiXuXuXdXdXdXyXyXpXY.Y.P . . .                                         ",
"                              . . A #.| 2XiXiXuXuXiXdXuXuXuXuXuXtXdXtXuXdXqX@.@.P . . .                                         ",
"                        . . : f f S _ _ o.$.$.<X9X9X9X9X9X9X9X9X9X9X5X$.$.O._ _ D f f > . .                                     ",
"                        . . : x c S e i i i e W.2X1X2X2X2X2X2X2X2X2X[.] e e H i A x x a . . .                                   ",
"                      $ 5 3 W #X#X! 9 B B S S w.R.R.R.R.R.R.R.R.R.R.w.S S S B 9 Y #X#X! % O O                                   ",
"                  . . 3 E E >XhXhXe.p p N :.c c b x x x x x x x v v x v =.c p p ! hXhX7Xr r * . .                               ",
"                  o o 4 E E ;XaXaXe.d d j c c :.v v v x v b v v v b x v v n d , ! aXaX:Xr r = o o o                             ",
"            . . O q q i u G r # # 7 V V M c :.v v b v v x v v b v v v v v m V V 0 # # = i i i i q = . .                         ",
"            . . % H J J J J < . . < C C M v v v v v v =.=.v v -.b v v b v m V J 8 . . % J J G J J & . .                         ",
"            . . 4 ].].[.8X8X~ ; ; k 6.6.R G D D D D u.C.C.C.C.n.D Z Z Z Z D 6.6.k , ; Y 5X5X<XW.].F . .                         ",
"            . . 4 3X3XqXfXfX!.p p 4.5.5.D e i e H J V.D.D.D.D.F.X.J H H J D 5.5.4.p p ~ fXfXeX3X5XP . .                         ",
"                4 Q Q ~ ~ ~ F - @ h ,.>.Y U U I l I q.y.y.y.y.q.I S I U U U ,.,.m - @ l %.%.~ Q Q y   .                         ",
"                  . . . . X . . . p :.:.1.9.9.>.x x x c c c c c v v =.5.0.<.:.:.g . . . . . . . .                               ",
"                  . . . . . . . . , N N >.2.2.>.-.;.;.;.;.;.-.-.-.-.>.2.3.>.N N s . . . . . . . .                               ",
"                              . . . . . a v x 2.5.5.9.9.5.9.9.9.9.5.3.v v N X . . . . .                                         ",
"                              X X X X X a b b 4.<.<.<.<.<.<.<.<.<.<.1.b b g X . X X X .                                         ",
"                        . . * w t 8 = = $ @ @ + + + + + + + + + + + + @ @ $ < = 7 t t 7 . .                                     ",
"                        . . = C H 0 r r O . . . . . . . . . . . . . . . . o r r t e J 6 . . .                                   ",
"                        . . & H i q u u 7 * * X . . .           . . X * * = t u u i i 6 . . .                                   ",
"                        . . & J C H H H t r r O . .             . . X 7 8 t H C H C i 6 . . .                                   ",
"                        . . & 8 8 8 8 8 < = = O . .             . . o = = < 8 8 8 8 8 & . .                                     ",
"                              . . . . . . . .                         . . . . . . . . .                                         ",
"                              . . . . . . . .                         . . . . . . . . .                                         ",
"                                                                                                                                ",
"                                                                                                                                ",
"                                                                                                                                ",
"                                                                                                                                ",
"                                                                                                                                ",
"                                                                                                                                "
};
