/* XPM */
static char *_d806a6a94a94a9fd8ed32406755c4f0at7Qub1XKAZ24Ppa[] = {
/* columns rows colors chars-per-pixel */
"64 64 13 1 ",
"  c #001713",
". c #001D15",
"X c #001E16",
"o c #0B2318",
"O c #0D2418",
"+ c #0C2419",
"@ c #0F2418",
"# c #0E2419",
"$ c #CCCCC6",
"% c #CDCCC7",
"& c #CECDC8",
"* c #CECDC9",
"= c #DDDBD3",
/* pixels */
"=&$&$$$$$&$$$$$$&$$$$&$$$$%%$$$$$&$$$$$$&$$$$&$$$$%%$$$$$&$$$$$=",
"& XXXXXXXX.X....XXXX.X.X....XXXXXX.X....XXXX.X.X....XXXXXX.XXX %",
"&X@@@+o##@o#o#@#@@####@######o#o#@o#o#@#@@####@######o#o#@o#@@X$",
"$X@@o#oo##o#o###oooo##oooo###oo###o#o###oooo##oooo###oo###o##@X$",
"$X@ooooooooooooooooooooooooooooooooooooooooooooooooooooooooo##X$",
"$X#ooooooooooooooooooooooooooooooooooooooooooooooooooooooooo##X%",
"$X##oooooooooooooooooooooooooooooooooooooooooooooooooooooooo##.$",
"%X##ooooooooooooooooooooooooooooooooooooooooooooooooooooooooo@.%",
"&X@ooooooooooooooooooooooooooooooooooooooooooooooooooooooooo##X$",
"$X@oooooooooooooooooooooooooooooooooooooooooooooooooooooooooooX$",
"$X#ooooooooooooooooooooooooooooooooooooooooooooooooooooooooo##X$",
"$X#ooooooooooooooooooooooooooooooooooooooooooooooooooooooooo##.$",
"$.##ooooooooooooooooooooooooooooooooooooooooooooooooooooooooo#X$",
"&X##ooooooooooooooooooooooooooooooooooooooooooooooooooooooooo#X$",
"$.@ooooooooooooooooooooooooooooooooooooooooooooooooooooooooo##.$",
"$X#oooooooooooooooooooooooooooooooooooooooooooooooooooooooooo#.%",
"$.#oooooooooooooooooooooooooooooooooooooooooooooooooooooooooooX$",
"$.#ooooooooooooooooooooooooooooooooooooooooooooooooooooooooo##X$",
"%.##oooooooooooooooooooooooooooooooooooooooooooooooooooooooo##X$",
"%.##oooooooooooooooooooooooooooooooooooooooooooooooooooooooo##.$",
"$X##ooooooooooooooooooooooooooooooooooooooooooooooooooooooooo#X$",
"$Xooooooooooooooooooooooooooooooooooooooooooooooooooooooooooo#X$",
"$X#ooooooooooooooooooooooooooooooooooooooooooooooooooooooooo##.$",
"$Xo#ooooooooooooooooooooooooooooooooooooooooooooooooooooooooo#.$",
"$X##oooooooooooooooooooooooooooooooooooooooooooooooooooooooo##X$",
"&X@#ooooooooooooooooooooooooooooooooooooooooooooooooooooooooo#X$",
"$.oooooooooooooooooooooooooooooooooooooooooooooooooooooooooo##.$",
"$X##ooooooooooooooooooooooooooooooooooooooooooooooooooooooooo#.$",
"$.oooooooooooooooooooooooooooooooooooooooooooooooooooooooooo##X$",
"$.##ooooooooooooooooooooooooooooooooooooooooooooooooooooooooo#X$",
"$.@#oooooooooooooooooooooooooooooooooooooooooooooooooooooooo##.$",
"$.##ooooooooooooooooooooooooooooooooooooooooooooooooooooooooo#.$",
"&X@ooooooooooooooooooooooooooooooooooooooooooooooooooooooooo##X$",
"$X@oooooooooooooooooooooooooooooooooooooooooooooooooooooooooo#X$",
"$X#ooooooooooooooooooooooooooooooooooooooooooooooooooooooooo##.$",
"$X#oooooooooooooooooooooooooooooooooooooooooooooooooooooooooo#.$",
"$.##oooooooooooooooooooooooooooooooooooooooooooooooooooooooo##X$",
"&X@#ooooooooooooooooooooooooooooooooooooooooooooooooooooooooo#X$",
"$.@ooooooooooooooooooooooooooooooooooooooooooooooooooooooooo##.$",
"$X#oooooooooooooooooooooooooooooooooooooooooooooooooooooooooo#.$",
"$.#ooooooooooooooooooooooooooooooooooooooooooooooooooooooooo##X$",
"$.#oooooooooooooooooooooooooooooooooooooooooooooooooooooooooo#X$",
"%.##oooooooooooooooooooooooooooooooooooooooooooooooooooooooo##.$",
"%.##ooooooooooooooooooooooooooooooooooooooooooooooooooooooooo#.$",
"&X@ooooooooooooooooooooooooooooooooooooooooooooooooooooooooo##X$",
"$X@oooooooooooooooooooooooooooooooooooooooooooooooooooooooooo#X$",
"$X#ooooooooooooooooooooooooooooooooooooooooooooooooooooooooo##.$",
"$X#oooooooooooooooooooooooooooooooooooooooooooooooooooooooooo#.$",
"$.##oooooooooooooooooooooooooooooooooooooooooooooooooooooooo##X$",
"&X@#ooooooooooooooooooooooooooooooooooooooooooooooooooooooooo#X$",
"$.oooooooooooooooooooooooooooooooooooooooooooooooooooooooooo##.$",
"$X##ooooooooooooooooooooooooooooooooooooooooooooooooooooooooo#.$",
"$.oooooooooooooooooooooooooooooooooooooooooooooooooooooooooo##X$",
"$.##ooooooooooooooooooooooooooooooooooooooooooooooooooooooooo#X$",
"$.##oooooooooooooooooooooooooooooooooooooooooooooooooooooooo##.$",
"%.##ooooooooooooooooooooooooooooooooooooooooooooooooooooooooo#.$",
"&X@ooooooooooooooooooooooooooooooooooooooooooooooooooooooooo##X$",
"$X@oooooooooooooooooooooooooooooooooooooooooooooooooooooooooo#X$",
"$X#ooooooooooooooooooooooooooooooooooooooooooooooooooooooooo##.$",
"$X#oooooooooooooooooooooooooooooooooooooooooooooooooooooooooo#.$",
"$X#@##oooo##oooo###o#o##oooo##oooo##oooo###o#o##ooo###o##o####X$",
"$X@######@@###@@###o#o@###@@#####@@###@@###o#o@###o####o##@###X$",
"& XX....X.X.XXXX....X.X.XXXX....X.X.XXXX....X.X.XXXX....XXXXXX %",
"=$$$%%$$$$&$$$$&%$$$$$&$$$$&%%$$$$&$$$$&%$$$$$&$$$$$%$$$$$%$$$&="
};
