/* XPM */
static char *c1c0c7a2e22a4a9c9d4638837cced938BBo1WjFpcRKrBEBX[] = {
/* columns rows colors chars-per-pixel */
"44 52 118 2 ",
"   c None",
".  c #020202",
"X  c #090605",
"o  c #080906",
"O  c #0D0A09",
"+  c #110B0B",
"@  c #10110C",
"#  c #1A1311",
"$  c #221612",
"%  c #221A17",
"&  c #2B1C17",
"*  c #251C19",
"=  c #2E1F19",
"-  c #1D2016",
";  c #2B211D",
":  c #272A1D",
">  c #282B1D",
",  c #2C2F20",
"<  c #372A25",
"1  c #382B26",
"2  c #3C2D28",
"3  c #2D3021",
"4  c #303323",
"5  c #393D2A",
"6  c #44281F",
"7  c #452A22",
"8  c #492E25",
"9  c #45342E",
"0  c #53362C",
"q  c #583A2F",
"w  c #483731",
"e  c #4C3A34",
"r  c #593F37",
"t  c #3C412D",
"y  c #444A33",
"u  c #55413A",
"i  c #4D5339",
"p  c #51573C",
"a  c #52583D",
"s  c #7C4A39",
"d  c #5F4841",
"f  c #585F41",
"g  c #664E46",
"h  c #684F47",
"j  c #6D5249",
"k  c #7C5244",
"l  c #70554C",
"z  c #74584F",
"x  c #765A50",
"c  c #7B5D53",
"v  c #5F6646",
"b  c #646B4A",
"n  c #707953",
"m  c #814F3E",
"M  c #855443",
"N  c #885747",
"B  c #885847",
"V  c #875849",
"C  c #8B5B4B",
"Z  c #935E4C",
"A  c #8C6A5F",
"S  c #946353",
"D  c #976857",
"F  c #9E6856",
"G  c #966859",
"H  c #996A5A",
"J  c #A36A57",
"K  c #A46D5A",
"L  c #A7715F",
"P  c #A9725F",
"I  c #8F6D61",
"U  c #957266",
"Y  c #9F7060",
"T  c #9F796C",
"R  c #A47565",
"E  c #A97462",
"W  c #AB7867",
"Q  c #A27A6D",
"!  c #AE7D6C",
"~  c #B07F6E",
"^  c #A77F71",
"/  c #7A845A",
"(  c #808A5F",
")  c #869063",
"_  c #889365",
"`  c #919C6B",
"'  c #B0806F",
"]  c #AC8173",
"[  c #B28373",
"{  c #B58778",
"}  c #B78A7B",
"|  c #B88C7D",
" . c #95A16F",
".. c #9DA974",
"X. c #A3AF79",
"o. c #A6B37B",
"O. c #ACB97F",
"+. c #BC8F80",
"@. c #BC9080",
"#. c #BD9080",
"$. c #ADBB80",
"%. c #AEBB81",
"&. c #AFBC82",
"*. c #AFBD82",
"=. c #B1BF83",
"-. c #B2BF84",
";. c #B5C386",
":. c #B6C387",
">. c #B9C789",
",. c #BAC889",
"<. c #BAC88A",
"1. c #BBC98A",
"2. c #BBCA8B",
"3. c #BCCA8B",
"4. c #BCCB8B",
"5. c #BDCB8C",
"6. c #BFCD8D",
"7. c #BFCE8D",
/* pixels */
"                                                                                        ",
"                                                                                        ",
"                  i a a a a a p p p p p p p p p p p p p p p p p p p p p t               ",
"              i n $.4.1.1.1.1.1.1.1.1.1.1.1.1.1.1.1.1.1.1.1.1.1.1.1.1.6. .b 3           ",
"            i o.4.;.$.$.$.=.$.$.$.=.$.=.$.=.$.=.$.=.$.$.$.=.$.=.$.=.$.$.:.2.) >         ",
"          5 X.1...t : > > > > : > > : : > : : : > > > : > > > > : : > : v =.1.( @       ",
"          f >.;.t . . . . . . . . . . . . . . . . . . . . . . . . . . . X / 6...4       ",
"        , o.1.` # . O < < < ; . . . . . . . . . . . . . . . . . . . . . . i $.1./ X     ",
"        3 $.1.y . O j { } } T u e e + . . . . . . . . . . . . . . . . . . X _ 6./ o     ",
"        3 $.1.y X h { | | | } | | } c h 9 . . . . . . . . . . . . . . . . . ( 6.) o     ",
"        3 O.1.y + Q | | } | | | | | | +.^ c c l # X X . . . . . . . . . . X ) 6./ o     ",
"        3 O.>.y O T | | | | | } | | | | | | +.} U A I 9 + + X . . . . . . . ) 6.( o     ",
"        3 $.>.y + Q | | | } { { [ [ | +.| | } | | +.+.] T Q c * % X . . . X ) 7.( o     ",
"        3 $.>.y O T | | | } P K K K ! ] { | | | | | | | | | } ] ] u * . . X ) 7.( o     ",
"        3 $.1.y + T +.| } ] K L W W L J L ! ! ] } | } | | | | +.| } ^ 2 . . ) 7./ o     ",
"        3 $.1.y + T +.| } E K ' | | ' ! W K J K W W ! [ | } | | | } | Q 1 . ) 7.( o     ",
"        3 O.>.y O Q | | } E L } | | | | } W J J K K K E W E ! | | | | | h o ) 7./ o     ",
"        3 O.1.y + Q | | | E L } | | } | | ! J K ] [ [ E K K E } | | | | g . ) 7.( X     ",
"        3 O.>.y + T | | } E E } | } | | | ! K K { | | } } [ L ! | | | | g . ) 7./ o     ",
"        3 $.1.y + T | | } E K } | | | | | ! J K { | | | } | ' E } | | #.g X ) 7.( o     ",
"        3 $.1.y + T | } } E K } | | | } | ! J K { | | | | | [ K ' | } | g . ) 6.( o     ",
"        3 $.>.y + T | | } E E | } | | | | ! J L { | | } | | [ J ' | | | g . ) 6./ o     ",
"        < O.<.y O Q | | } E L } | | | | | ! F K { } | | } | [ J ' | | | h . ) 6.) o     ",
"        , %.<.y O Q | | } E L } | | } | | ! K K { | | | | | [ J ] | | @.h . ) 6./ o     ",
"        3 $.4.y + Q +.| } R L } | | | | } ! J L { | } | | | ] J ' | | +.g . ) 6./ o     ",
"        3 $.1.y O T +.} } E L } | } | | | ! J K { | | | | | [ K ' | | | g . ) 6.( X     ",
"        3 O.,.y O Q | | } E L } | | } | | ! J K { | } | | | [ J ! | | +.g . _ 7.( X     ",
"        3 O.,.y + T | | } E L } | } | | | ! J K { | | | } | [ J ' | | @.g . ) 7./ o     ",
"        3 $.4.y + Q @.| } E L } | | } | | ' J L { | | | | | [ K ] | | | h . ) 7.) o     ",
"        3 O.1.y O T | | } E L { | | | | | ! J K { | | | | | ' F W [ [ } g X ) 7.( o     ",
"        3 O.,.y O Q | } | E L } | | | | | ! J K { | | | | | Q M M M M V 8 . ) 7./ X     ",
"        3 O.,.y O T | | } E L } | | | } } ! J L { | | | | | R C S B S D 6 . ) 7.( o     ",
"        3 ;.,.y @ T | | | E P } +.} } } +.Q J K } | | | } | R s R | ! m 6 . ) 6.( o     ",
"        3 O.,.t O T | | | E L } } | +.} +.! J K [ | | | | +.Q s H +.] m 6 . ) 6./ o     ",
"        3 O.,.y + T | | } E L } | | | | | ! F L { | | | | | R C H Z D D 6 X ) 6.( o     ",
"        3 O.,.y + T | | } P L } } | | } | ! K K { | | | | | R D ] N M R 6 . ) 6.( o     ",
"        3 $.,.y + Q | | } P P } | | } | | ! K K { } | } | | Q D | R C R 7 . ) 6./ X     ",
"        3 $.,.y + Q | | | R L } | | | | +.! J K { | | | | | R D | H V R 7 . ) 6.( o     ",
"        3 $.4.y + T | | } R L } | } } | | ! J K { | | | | | R D +.{ Y R 7 . ) 6.( o     ",
"        3 $.1.y + T | | } P P } | | | | | ! K K { | | } | | Q B H H H S 6 X ) 6./ o     ",
"        3 O.>.y + T | | | P L } | | | | | ! J K { | } | | | ! Z H Y R R u . ) 6.( o     ",
"        3 O.1.y + T | | | E L } | } } | | ! J L { | | | | | ] K ' | | #.h . ) 6.( o     ",
"        3 O.1.y O Q | | | E K } } | | | | ! J K { | | | | | [ J ' | | | h . ) 6.( o     ",
"        3 $.1.y + Q | +.| W J E } | | } | ! J K [ | | | | | [ J ' | | | g . ) 6.( o     ",
"        3 $.1.y X g x z Q | W J R [ } } | ! J K } | } | | | [ J ' | } | h . ) 6./ o     ",
"          $.>.y . . . . w d j R J K W ! [ ~ J L { | | | } | [ J ' | | | h . _ 6.(       ",
"                            # 8 7 8 V F K P J K { | } | } } W K ' | | | I               ",
"                                    = = 0 Z S S L E E [ } E J J ' | | | #.              ",
"                                          $ $ ; k B B F P K K K [ | | | |               ",
"                                                # + # q k k G ~ | | | | |               ",
"                                                        X X < z x z c z c               ",
"                                                              . . . . .                 "
};
