/* XPM */
static char *_5bc2dab17ec4fa3ef234a16b4737ee66GbCPtG2DFD1AmnN[] = {
/* columns rows colors chars-per-pixel */
"64 64 22 1 ",
"  c #F8C85A",
". c #F9C95B",
"X c #F8C85C",
"o c #F9C95D",
"O c #FACA5C",
"+ c #FBCB5C",
"@ c #FBCB5D",
"# c #FACA5E",
"$ c #FBCB5F",
"% c #FCCC5D",
"& c #FCCC5E",
"* c #FDCD5E",
"= c #FDCD5F",
"- c #FECE5F",
"; c #FBCA61",
": c #FCCB62",
"> c #FCCC60",
", c #FDCD61",
"< c #FECE60",
"1 c #FDCC63",
"2 c #FECE62",
"3 c #FECD64",
/* pixels */
"************************------------------------<<3<222222222222",
"************************------------------------<3<3222222222222",
"************************------------------------3<3<222222222222",
"************************------------------------<3<3222222222222",
"************************------------------------3222222222222222",
"************************------------------------2222222222222222",
"************************------------------------2222222222222222",
"************************------------------------2222222222222222",
"************************------------------------2222222222222222",
"************************------------------------2222222222222222",
"************************------------------------2222222222222222",
"************************------------------------2222222222222222",
"************************------------------------2222222222222222",
"************************------------------------2222222222222222",
"************************------------------------2222222222222222",
"*,**,*******************-------------------<<<<<2222222222222222",
",,,,,,,*,***********************----2---<<3<,3333332111133333333",
"1,11,,,,**,*********************------22<3<333333<22111133333333",
"1111,,,,*,*,********************-----2--3<3<333311:2111133333333",
"1111,,,,*,**********************------2-<3<3333312::111133333333",
"1111,,,,*,**********************-----2--322233331111111133333333",
"1111,,,,*,*,********************-----2-2<32233331111111133333333",
"1111,,,,**,*********************------2-222233331111111133333333",
"1111,,,,,***********************----2--2222233331111111133333333",
"1111,,,,**,*************,,----------22--222221333333333311111111",
"1111,,,,,*,***************-------------2222233333333333311111111",
"1111,,,,*,**************---------------2222233333333333311111111",
"1111,,,,***,************------------22--222233333333333311111111",
"1111,,,,,**,************---------------2222233333333333311111111",
"1111,,,,,**,************-------------2--222233333333333311111111",
"1111,,,,****************------------2-2-222233333333333311111111",
",,,,,,,**,,*************--------------2-222222223333333311111111",
">+>+-+++-++-+----++-+---+------+--------%----+-->>>>>2>2>2>2>2>2",
"-+-+++--------++------++--++++-----------%%---+->>2>2>2>2>2>2>2>",
"+++-+-+++--+-+--+--+-+---+----+---------%-%-++-->2>2>2>2>2>2>2>2",
"+-+-++-++--+--+-+--+--+---+--+-----------%-%---+2>2>2>2>2>2>2>2>",
"++-++-++---+-+-----+-+--++----++--------%-%-%-%->2>2>2>2>2>2>2>2",
"-+-++-+--+---+-+-+---+-+---++------------%-%-%-%2>2>2>2>2>2>2>2>",
"+-++++-++-+-----+-+---+----++-----------%-%-%-%->2>2>2>2>2>2>2>2",
"+++--+++--+-+-->--+-+---++----++---------%-%-%-%2>2>2>2>2>2>2>2>",
"-++-+++-+-+++-++-+--++---+---+----%-%-%-%-%-%-%-2>2>2>2>32222222",
"-++-+-+++-+-++-+--+----+-+-+--+----%-%-%-%-%-%-%>2>2>2>222222222",
"++++-+-+++-+--++++-----+--+-++--%-%-%-%-%-%-%-%-2>2>2>2>>>2>2>2>",
"+--+++-+-++++++----+++--+------+-%-%-%-%-%-%-%-%>2>2>2>2>2>2>2>2",
"+--+++-+++--+--++------+--+++---%-%-%-%-%-%-%-%-2>2>2>2>>2>22>2>",
"++++-+-+-+++++++--++-+--+-----++-%-%-%-%-%-%-%-%>2>2>2>2>>>>>>>>",
"-++-+-++-+++-++--+--+-+-+----+--%-%-%-%-%-%-%-%-2>2>2>2>>>>>>>>>",
">++-+++-++-->+++--+---+---++--+--%-%-%-%-%-%-%-%>2>2>2>2>>>>>>>>",
">+>+o+>+>+>+>>>++-+++-++--++++--+++-+--++--+-+++-%-%>+>+>>>>2:::",
">+>>>>>;>>>>>>>>+-+-++-++++--+++--++++++++++++---%%%+--+>>>>::::",
">o>>>o>o>>>>>>>+>++---+++++--+++++-+-++--++-+-++%%%%+>+>>>>>::::",
">>>o>o>>>>>>>>>>+-+++++---++++--+-++-++--++-++-+%%%%+->+>>>>::::",
"o>>o>>o>>>>>>>>++-+++++-++-++-++++-+-++++++-+-++%%%%-+>->>>>::::",
"o>>o>o>>>>>>>>>>>++---+>+-++++-+-+-+++-++-+++-+-%%%%-+++>>>>::::",
">>>>>>oo>>>>>>>++-+-++++++----+++-+++-+--+-+>+>+%%%%++>->>>>::::",
">oo>o>>>>>>>>>>>+-+++-+>-++++++-+++-+-++++-+++++%%%%+-+>>>>>::::",
"X>X>X>X>>>>>>+>X++++++++++++++++-++-+++-++++++++++++o>+>>>>>;;;;",
"XXXXXXXX++X>X;;+++++++++++++++++-++-+-++++++++++++++++++>>o>;;;;",
"X>XXX>XX>X>X>XX+++++++++++++++++++++-+-+++++++++++++++++oo>>;;;;",
"XX>XXX>XX>X>X>+X>++++++++++++++++--+++-++++++++++++++>o>>>>o;;;;",
"XXX>XXXXXXXXXXX++++++++++++++++++--+++-+++++++++++++++>+>oo>;;;;",
">XXX>X>XX;++;XXX++++++++++++++++++++-+-++++++++++++++o++>>>>;;;;",
"X>X>XXX>XXXXXXXX++++++++++++++++-++-+-+++++++++++++++>++o>>o;;;;",
"XXXX>XXXXXXXXXX ++++++++++++++++-++-+++-++++++++++++++>+o>>o;;;;"
};
