/* XPM */
static char *edfbbcaa0bab44e4974d931983800d1dhpvXWOP37AWGvNX9[] = {
/* columns rows colors chars-per-pixel */
"64 64 16 1 ",
"  c #1CB2CE",
". c #1DB2CF",
"X c #1DB3CF",
"o c #1EB3CF",
"O c #18B4D2",
"+ c #19B4D2",
"@ c #21B0CB",
"# c #21B1CB",
"$ c #22B0CB",
"% c #22B1CB",
"& c #23B1CC",
"* c #24B1CC",
"= c #CDDDDD",
"- c #CDDDDE",
"; c #DDDED7",
": c #CEDFE0",
/* pixels */
";:=========:==:=======::=====::=:=::=:--======------===:==:===:;",
":O%O++$++**++&@+..O.%O&O+.&+%++&@+&++@..&O++$+&+O@$O*++&@+&++$+:",
"=%%&% %%*&.%&$$@%&@%%%&&*$$$%*$ $@@$$$@@&%$$$$*&%*@.%%&$$$&$$$+=",
":O%%&&&&&&$%&$@@%%%.&%%%% &$*%%%$@@@&@@@%%&&$*$&%%%$$ %$$@.*$$+=",
"=+$$@&&&$*&&&&&&&&&&&&&%%%%%&%$&&&&&&**%*%*$&&&&%%$$&%$&+%*%$*+=",
"=.$*.&&%&+&&&&&O%@&&&&&@%*&$&&$&O&&&.$&*%*+*O&&&&%&$&%&O**%*$*&=",
"=&$$$*%%$$%*.&$&.%&&.%.%*+*$&&&$&$&%$$&+**%&&$&%&&&*%&&&$*$*&&+=",
"=+$$%%%%%&*%$&$$&&&&%@&&&&$&&&O&$&%%&&$*%$ $$&%%&&&+&&&&$$ &&$$=",
"=+%& %$&%&$$&$%*&&&%@%&&@%&&&&@%$ $%&%&&&O&$*$&&&%%&**$ &%$&$%O=",
"=+%&$&$$&%&$% **&&&.&&&&%.&&&&%.&%**%%&&&&$&+*$$&&%$%*%%&%&O$&&=",
"=$%%%*O&&&&&$*%*@%&&&&.%&&&&&&&&*+*%$&*+*%$&*%*%&&&$*%$&%&&&$$O-",
":O%%**&&&&&O&+*%%.&&&&%@&&%@%.&&$*%*$&$**$ %%**$&&$*+*$&&&&&$$+-",
"-O$$%&&&** %$%%&.%@&&%.&&%@%.%@&&$&O&$*%*%&%&&% &$&$&&&$&&*%**+=",
"-@$$&%&&*%$&$&&%&&%&&@%&&.&&&&%&&$&&$&%*%*%%&&&$O&&$&&O&+&&%$%&=",
"=@$*&%$*%*$$O&&&&&@%&&&&@%&&&&@%%%&&$ $**$&&&O&$**% &&%&*$%%&&+=",
"=+$*$$&+*%&$&&&&&&%.&&&&%.&&&&%.%&&&&%%*+*$$&&$&%*%$%&%$$&*$.$$=",
"=+$&&$%&@%&&&&@%&&&&.%&&&&.%&&&&&$&&$$*+*%%&&&&%*+*$&$&&% &$$%O=",
"=@$$.*%%%.&&%.%.&&&&%@&&&&%@&&&&$&O&&&$**$ $&&%%%*$&O&$$%$$*&%&=",
"=@$&&&&%&&&%@&&&&%@&&%&&&&.&&%@&$&&&%%*%*%&$&&$&&%$&&&&%*%*+$$+=",
"=+$$&&&&&&&@%&&&&.%&&@%.%@%&&.%& %&&%&%*%*$&O&$&&&%%&&&&**%*$$+:",
"=+%&&%&%&&&%.&&&@%&&&&.%@%&&&&@%$**%% $**$&$*%*$&&$%**%%&&*%$$+=",
"=O%&O&&%&&&.%&&&%.&&&&%@%.&&&&%.%*%*&$%*+*&$%*+*&& %%*&$+&&%*$&=",
"=&%%**% @%&&@%@%&&&&.&&&&&&%&&&&$$*+&$&&&&%%**%&&$&&*+*$*$*%&$+=",
"-O%*%*%$%.&&&&%.&&%@%&&&&&&@%.&&&&$*$&O&&&%&%$ $O&$$%*$&$&$.&&$=",
"-+$$.%$&&&.%&&&&&%@%&&&%@&&&.%@&%%&$$ $%*$&&%%&$&%$$*%%&$&&$&&+=",
"-.$$&&%&&&%@%@&&&.&&&&&.%&&&&&%&%&$&&%**+*$$%&$&%%&&*$ $%%O&$$&=",
"=.$*&&$%.&&&.%&&@%&&@%&&&&.%&&@%&&&O*+*%*%*%&&&O&&*$*%&$&&&&$.O-",
"=.$*&&%.%&&&&&&&%.&&%.&&&&%@&&%.&&&&$*%*%**$&&&&&&+*%*$&%&&&%@@-",
"=.$%&&&&@%&&&&@%&&&&.%&&&&@%&&&&*%%&&&%%&$$ $$*+&O&$&&&O&&&%%%+=",
"=.$$&&&&&&&&%.%.&&&&%@%@%.%.&&&&*$ $$$%&$&&%&&$*&&$&&&&&&&&%*%&=",
"=.$*&$$&&&.%@&&&&%@&&&&%@&&&&%@&*%&$&&&&&O&&%%*%*%$&&%$$&+$*$*+=",
"=.$%&.%&&&%@%&&&&.%&&&&.%&&&&.%&%*$&O&&&&&&&%&%**$ %%%&&$*$*$$+=",
"=+%*&%%&*%**&O&&$$&O%&&$**$ &&&%*+&&&O&$&O&$$&*$&&%%% $**%&%&$+=",
"=+%$&&%$+*%*$&&&&&$&%$$*%*%%&&&&$*&&&&$&&&$& %+*$$%&&$%*%*%%& *=",
"=$$.&&&$*$$%&$&&% &&&%*+*%$&&O%%&&%%*%$&&&&%$**%&&&&&$&&*$&&$$+=",
"=+ &&&$*$& %&$%&%$&&&&%*+*$&$&&$$$%&*$ %&&%%%*%*O&&&$&O&+*$$**+=",
"=+$$*%*+$%&%&$$%*%*%$%*%*$$&*+*$&$&&*%*+*$&&&$&&&$*%*+&&&&&%$$+=",
"=$$$**%*&%&&$*&%**+* %**$&%%%*$&$&O&%*$*+*$$$&O&$&%*$*&&&%%&$*&=",
"=.&*$%$$&O&&*+**%&*$$&&O&&&%*%$ $&&&&%&$*%*%$&&&$ $*&&%%&&$$*$+=",
"=.$* %&&$&&&%*%*%$$&$&$&&&&&**%% %&&%%&$%**$ %&&&%%*$$%&&&$*$*+=",
"=.$$ %*%%%&&&&$%&%$&%%**&$$%&%$&$**%&&&O&$$&$&%%&%%&**$ +&%*%$+=",
"=.$&$%*%&$%&&& %&&$& $%*$*&%&&$&%*%*&&&&$& %$&%&&&%$%*%%&$***.&=",
"=.$&&&%%&$*%&$&&&&&$&$*%*+**&&&$$$*+&%$$*%$%*$*%&&&$*%$&$% **$O=",
"=.$&&*%%$*+*O&$$&&O&$*+*%*%*&&O&&&$*%%&&%***+*%*&&$*+*$&$&$%$*+=",
"=+%*&%&%$%*%&%%&**$ $%&%$&%%%&&$%%&$$&*$*+&&&&**&$&$&&&$&&%*$$+=",
"=+%%+*&% %**&&%$%*%%&%&&$& $%$$*%&$& %+*$*&&O&%$O&&$&&O&+&*%*$&=",
"=&$*&&%%$&&O&&&$*%$&&O&&&$&&&%*+&&&O$**%&&%%&$$ **% &&%&*$*%.$O-",
"-O &&&%&$&$&&&$*+*$&$&&&O&&&&&%*&&&&%*%*$$%&$&&%%*%$%&%$$&%%$&@-",
"-+$$.%$&&&.%@&&&&$&&% &$$%&%$%*%O&&&$*%* %$&%&&$*+*$&$&&% &$$%O=",
"- $$&&%&&&&&%&&&O&$$%$$*&%&& %**&&&&&+*%$&$$&%%$%*$&O&$$%$$*&%&=",
"=.$*&&$%.%&&&&.%&&&%*%*+&O&&$&&O$&%&$$**%*O&&&$&&%$&&&&%*%*+$$+=",
"=.$*&&%.%@&&&&%@&&&&**%*$&&&$&$&$$&%%&*%**&&&&*+&&%%&&&&**%*$$+:",
"=.$%%%&&&%.&&%@%&$$%%$&O&$*+*$&&&$%*$$&$%*+***%*&&$%**%%&&*%$$+=",
"=.$$&*&&&@%&&.&&$*&%&&$&&$%*$&&&% **&$% *%&$*%*%&& %%*&$+&&%*$&=",
"=.$*&$$&&&&&@%&&*+**% &&%%*%$%&&$*%*O&&&%&$$ $$&&$&&*+*$*$*%&$+=",
"=.$*&.%&&&&&%.&&%*%*%$&& $**&%%&&+*%&&&&&%%&%&$$O&$$%*$&$&$.&&$=",
"-%%&%**$.%&&&&.%%%&&&&&&&&&%&&*%$$O&$$&%&&+&$$O&&&&&*+%*$&&$&&+=",
"-+%%*** %@%@&&%@*$&&+&%&&&&&+&&*%&&&&$$ *%*$%&&&O&&&$%**%%O&$$&=",
"-O$&+*&%&&&%.&&&&.$$&%%%&O%%*$%%%&&&%*%*%*$.%&&&&$&%*$$*&&&&$.O-",
"-$$*%$%%&&&.%&&&&&$$%&&%$&&$$&$.&%&&*%**%%*&&%&&$&%%&$ %%&&&%@@-",
"-+$$$%%%&%&&@%&&$$*$&&$$&&&%@$$&$.$$&%&%*$*&%$$$&&%&&%&&&&$$**+=",
"- $$$$%%%%%%%%%%$$$$&&$$$$ %@$$&%&$$.$ %$$$$%.$$$$ %%$%%$@$$%$%=",
":+.. +&OO&O%.O....$+O++@&++$..&++%+$&++$+$.++%$+&++$+$$++.$++.+:",
";===--:==:========:====:=====:===:=:===-===:===:===-==:======::;"
};
