/* XPM */
static char *e99b63cb52ae4aad87a1fb5e23b99f26enRJweVH01Crmhys[] = {
/* columns rows colors chars-per-pixel */
"64 64 179 2 ",
"   c None",
".  c #061F02",
"X  c #101E03",
"o  c #062B02",
"O  c #082E03",
"+  c #142B02",
"@  c #0A3404",
"#  c #073902",
"$  c #0A3B02",
"%  c #133C03",
"&  c #183C04",
"*  c #0A4202",
"=  c #154201",
"-  c #1D4500",
";  c #154A03",
":  c #1D4901",
">  c #214700",
",  c #254A00",
"<  c #294D02",
"1  c #275002",
"2  c #2A5203",
"3  c #2E5209",
"4  c #2E5D0F",
"5  c #315B07",
"6  c #385E06",
"7  c #305109",
"8  c #325F0F",
"9  c #3A5E0B",
"0  c #2F5F10",
"q  c #375613",
"w  c #2F600F",
"e  c #33610C",
"r  c #3C6209",
"t  c #306110",
"y  c #41591D",
"u  c #43660A",
"i  c #466909",
"p  c #496C0B",
"a  c #4C710C",
"s  c #51750D",
"d  c #5B7E0F",
"f  c #436B12",
"g  c #476918",
"h  c #45711B",
"j  c #4E761A",
"k  c #527016",
"l  c #547519",
"z  c #587A1A",
"x  c #4D6720",
"c  c #4F7120",
"v  c #5D7528",
"b  c #557B23",
"n  c #607D26",
"m  c #028C27",
"M  c #058D29",
"N  c #0B8E29",
"B  c #128E29",
"V  c #188F29",
"C  c #079029",
"Z  c #0D9129",
"A  c #139029",
"S  c #1B922A",
"D  c #22942A",
"F  c #2E962B",
"G  c #359426",
"H  c #3B9426",
"J  c #32962B",
"K  c #349B2D",
"L  c #3A9A2F",
"P  c #5F8412",
"I  c #618712",
"U  c #698F14",
"Y  c #6A8C1D",
"T  c #6B9115",
"R  c #7A9F16",
"E  c #779C19",
"W  c #7A9E19",
"Q  c #769B16",
"!  c #7DA217",
"~  c #7EA31A",
"^  c #5F8427",
"/  c #5D8229",
"(  c #459B2C",
")  c #4A9D2D",
"_  c #5F9B21",
"`  c #678921",
"'  c #6A8B24",
"]  c #63842A",
"[  c #6C8D2D",
"{  c #619C21",
"}  c #70942E",
"|  c #799935",
" . c #759B30",
".. c #4EA12E",
"X. c #55A32F",
"o. c #59A42F",
"O. c #5AA630",
"+. c #5EA831",
"@. c #53A431",
"#. c #62A42E",
"$. c #6DA92E",
"%. c #71A527",
"&. c #7DA92D",
"*. c #63A530",
"=. c #64AB31",
"-. c #6AAD31",
";. c #76AE32",
":. c #79AF33",
">. c #7BB133",
",. c #76B132",
"<. c #76BE44",
"1. c #7DBF44",
"2. c #81A51C",
"3. c #82A720",
"4. c #86AB24",
"5. c #88AD25",
"6. c #82A72D",
"7. c #84AA2E",
"8. c #8DB22A",
"9. c #89AD30",
"0. c #8AAD3E",
"q. c #83A438",
"w. c #84B635",
"e. c #8EB333",
"r. c #8DBA35",
"t. c #81B639",
"y. c #8DB03F",
"u. c #89BA3B",
"i. c #94B734",
"p. c #94BA33",
"a. c #9ABF37",
"s. c #99BF38",
"d. c #9BC037",
"f. c #90C03F",
"g. c #9CC138",
"h. c #9EC138",
"j. c #9DC239",
"k. c #9FC239",
"l. c #9CC138",
"z. c #A1C53C",
"x. c #A3C83F",
"c. c #89BF41",
"v. c #9FC943",
"b. c #9DCD4D",
"n. c #A5C941",
"m. c #A5CA42",
"M. c #A9CE46",
"N. c #A6CF49",
"B. c #AACE48",
"V. c #ABD047",
"C. c #AED34A",
"Z. c #ACD24A",
"A. c #ADD24B",
"S. c #B0D54D",
"D. c #B2D74F",
"F. c #B1D64D",
"G. c #B3D84F",
"H. c #B3D84F",
"J. c #AAD550",
"K. c #B3D651",
"L. c #B6DB53",
"P. c #B7DB55",
"I. c #B7DC54",
"U. c #B6DB53",
"Y. c #B8DD55",
"T. c #B9DE55",
"R. c #B8DE55",
"E. c #BADF56",
"W. c #BADE56",
"Q. c #B9DE56",
"!. c #BADF56",
"~. c #BBE056",
"^. c #BBE057",
"/. c #BAE056",
"(. c #BDE357",
"). c #BDE257",
"_. c #BDE157",
"`. c #BCE057",
"'. c #BDE258",
/* pixels */
"                                                  , , , , , , , , , < > , , , > , , , ,                                         ",
"                                                  < , , , > > , , > > , > , , , > , , ,                                         ",
"                                                  , > , , , > , , , > > , , , , , , , <                                         ",
"                                                  < , , > < < > , , < , , , , , < , , <                                         ",
"                                                  < < < , < > < > 7 > < < , , , < < < <                                         ",
"                                                  @ O O O + O + O @ + + + + @ + @ @ @ @                                         ",
"                                        1 1 2 ; ^ c.0.c.c.c.q.c.c.c.0.0.q.c.c.c.0.0.0.c.b ; 1 1 2                               ",
"                                        1 < 3 = } (.W.W.W._._._.W.P._._._._.W.P._.E._.(.] % 2 < <                               ",
"                                        < , < % [ I.!.!.!.!.!.!.W.P.W.W.!.!.!.!.I.!.!.I.^ % < , ,                               ",
"                                        < > < * [ !.!.!.!.!.!.!.W.W.W.W.!.!.!.!.!./.!.!.v % , , <                               ",
"                                        2 < 3 - [ /.!.I.I.!././.W.W.W.W.!.!.!.!.E.!.!.!.] = 7 7 3                               ",
"                                        $ # % X [ ).).).).)./.(.W.'.W.W./.!.)./.E.!.!.!.v . O O @                               ",
"                                      f z l l k  .b.b.b.b.A.K.K.K.K.K.K.K.K.G.I.E.E.E.E.q.n ] ] ]                               ",
"                              < , , = j a.a.a.s.=.A C C C O.j.j.h.h.h.h.h.h.h.A.!.!.E.E.U.U.U.Y.K.h - , , ,                     ",
"                              < , , = j d.h.g.h.-.N M C M o.d.j.c.h.h.h.s.h.h.A.).I.E.E.E.).E.E.!.h > , , <                     ",
"                              < , , % j g.h.g.h.-.N Z C N O.d.g.h.h.h.h.h.h.g.A.E.!.E.E.E.!.E.E.U.h - , , ,                     ",
"                              < , , % j d.g.g.h.-.N C C N O.h.h.g.g.g.g.g.g.g.C./.!.!.!.!.`././.P.h - , , ,                     ",
"                              < , < = j h.g.g.h.-.C Z N N O.d.g.d.g.g.d.g.g.g.Z.).!.!.!.!.!.!./.P.h - , , ,                     ",
"                              ; = ; % j g.g.g.h.=.C C M M O.h.g.g.g.g.d.d.d.d.Z.!.!.!.!.!./.!./.U.h > , > ,                     ",
"          1 < < < 1 < < 1 , f 6.6.6.6.e.g.g.g.g.i.w.w.t.w.r.h.g.g.g.;.L ) ( ) >.m.n.n.m.K.'.!./.Y.h & , , <                     ",
"          1 < , , , , , , , f h.j.g.g.g.g.g.g.g.g.h.h.g.h.g.g.g.g.j.O.M M M m =.a.a.d.a.C.`.`.`.Y.h > , , ,                     ",
"          1 , , , , , , , > f s.g.g.g.g.g.g.g.g.g.g.g.g.g.g.g.g.g.g.o.N B A Z -.z.a.d.d.C.`.`.`.P.h - , , ,                     ",
"          1 , , > , > > , - f s.j.g.g.g.g.g.g.g.g.g.g.g.g.g.g.g.h.h.O.M C C N -.z.d.d.d.K.`././.P.h - , , ,                     ",
"          1 , , , < < < < , f p.j.g.g.g.s.g.s.g.g.g.g.g.g.g.g.g.g.h.O.N Z B N -.d.d.z.d.C./.!.`.P.k > < , <                     ",
"          * $ # # # @ O @ o q s.j.g.g.h.h.h.h.h.h.g.g.g.g.j.p.j.g.j.o.m M N M =.j.g.g.g.G./.`.`.!.q o @ @ @                     ",
"        t ' ' ` Y ' | | | | q.g.g.g.j.r.;.;.>.;.w.g.g.g.a.n.M.M.M.M.u.o.#.#.#.w.h.g.g.g.M.C.C.C.B.0.| | | | x                   ",
"< < < : w p.j.j.j.m./.`.`.(.G.j.g.h.j.>.B N M N ..g.g.g.g.M.`./.!./.V.j.h.h.h.h.g.g.g.g.g.g.s.a.k.K.'.`.`.I.b & 2 < 2           ",
", , , - w i.g.g.j.z.I.!.I./.F.j.g.h.j.>.B V V N o.g.g.g.g.B.!.!.!.!.M.j.g.s.s.h.g.g.g.g.g.g.h.g.h.K.!.I.!.K.c & < , 1           ",
", , , - 4 i.h.g.j.k.I./././.K.j.j.j.j.>.B Z Z N o.g.g.g.j.M././././.M.j.h.g.g.g.g.g.g.g.g.g.g.h.k.K./.!.!.K.c & < , 1           ",
", > , - 4 i.h.g.j.x.I.I.I.!.C.g.p.j.j.>.B S A N o.g.g.h.g.M././.I.!.M.a.g.g.g.g.g.g.g.g.g.g.g.h.k.J.!.!.!.U.c = 3 < 2           ",
", , , - 4 i.h.g.j.n.!.`.'.'.U.h.g.g.j.>.N M C M ..g.g.g.a.V.`.`.`.`.M.j.g.g.g.g.g.g.h.j.g.g.j.j.j.K.'.!./.U.x + - = :           ",
"> , , - 4 i.h.h.a.k.J.J.J.J.N.g.g.g.j.>.S J F D =.k.k.v.k.V.I.K.U.I.M.g.g.g.g.g.g.g.g.j.r.r.r.p.r.V.P.U.U.S./ 7 9 9 r           ",
", , , - 4 i.g.g.d.u.L K K K ..d.g.g.g.d.r.r.i.r.v.U.U.P.I.A.k.k.k.z.j.g.g.g.g.g.d.d.h.h.X.S J F J w.z.z.k.v.i.e.e.e.9.w : , , 1 ",
", , , - 0 i.g.g.h.u.Z M M M K d.g.g.g.g.j.j.j.h.M.`.!.!.`.V.g.a.g.g.g.g.g.g.g.g.d.d.h.h...M M M V ,.d.d.s.d.g.h.j.k.p.w - < , , ",
"> , , - 4 i.g.g.h.w.Z A A N K j.g.g.g.g.d.h.d.d.M.!.!.!.`.V.g.g.g.g.g.g.g.g.g.g.d.d.d.a...M A Z S >.z.d.g.g.d.d.j.j.i.w - , , , ",
"> , , - 4 i.g.g.h.w.Z M M M K p.g.g.g.g.g.h.d.d.M.!.!.!.`.A.j.g.g.g.g.g.g.g.g.g.z.d.d.a...M M M S >.j.d.g.g.g.g.j.j.i.w - , , , ",
", , , - 4 i.g.g.h.w.Z Z Z C K d.g.g.g.d.a.a.h.a.m.!.!.!./.V.g.g.d.d.s.s.g.g.g.g.z.a.d.z.X.N V B S >.h.h.h.h.g.g.h.h.i.4 - , , , ",
", > , - 4 p.h.g.z.w.A M M C K g.g.g.g.g.a.z.z.a.V././././.V.g.g.z.a.z.s.g.g.g.g.a.a.a.d.) M M M V >.h.s.g.g.g.g.g.h.i.4 - , , > ",
", , , - 4 4.8.8.8.4.{ { T _ %.a.h.h.g.w.#.*.#.#.t.M.M.M.M.x.g.g.a.d.w.#.*.*.O.f.S.S.A.S.r.;.,.;.,.n.C.C.C.A.k.g.g.h.i.4 = , , > ",
", , , > 3 Q ! ! R ! 2.2.2.2.4.a.g.d.z.,.B M M M ..a.j.a.j.g.g.g.a.z.o.M M N M <._.E.E.E.M.d.z.j.z.G.'./.`.I.m.g.g.g.i.8 - , , , ",
", , , > 5 E 2.W ~ ~ ~ ~ ! ~ 4.a.g.g.j.>.A A A N o.d.d.d.d.d.g.g.d.z.o.N A B Z 1.'.!.!.!.m.j.j.p.h.S.!.!.!.U.x.a.g.h.i.4 - , , , ",
", > , > 5 Q ! 2.~ ~ ~ ~ ~ ! 4.s.g.g.j.>.B N N N o.a.d.d.h.d.g.g.z.a.o.N C N N 1.'.!.!.!.m.j.j.d.h.S.).!.!.!.x.j.j.j.i.0 - , , , ",
", , , - 5 E ! ~ ! ~ ~ ! ~ ~ 4.a.g.g.j.>.B Z N N X.a.z.a.h.h.h.g.a.h.o.N C B M <.'.!.!.!.m.j.j.d.k.K.!.!.!.!.z.a.j.j.p.0 - , , > ",
", , , > 6 E 2.2.2.2.2.2.2.~ 4.s.h.g.j.>.N C M N X.z.a.a.j.j.j.j.z.z.o.m M m m <._.!.!.'.M.j.j.j.j.K.).!.).!.m.g.j.j.p.w - < , , ",
"1 1 < , 5 U T T T T T T T U E p.p.p.p.>.G H G G #.i.p.i.p.i.i.i.p.p.$.( ) ) ) v.U.S.K.K.k.p.p.p.p.M.V.A.B.M.i.6.7.7.&.e : 1 1 < ",
"          , : : : - : : - - e W 2.2.! ~ ~ ~ ~ ~ ! R 2.2.2.2.R 2.2.! 8.a.a.a.p.g.h.h.g.g.5.! ~ ~ ! ! ! ! 2.R 6 % ; = ;           ",
"          1 , , , , , , , , r ! ! ! ~ ~ ! ~ ! ~ ! 2.! 2.R 2.W 2.R 2.8.a.d.a.d.h.h.g.g.g.5.! ~ ~ ~ ~ ~ ~ 2.W r - , , 2           ",
"          1 , , , > , , , > r W ! 2.~ ~ ~ ~ ~ ~ 2.R 2.R 2.! 2.W 2.R 5.z.j.j.d.h.h.g.g.g.5.! ~ ~ ~ ~ ~ ~ 2.W r - < , 1           ",
"          < , , , , , > , > r ~ ! ! ~ ~ ~ ~ ~ 2.! ~ ~ 2.2.R 2.2.~ ! 8.h.g.h.d.a.a.a.s.a.4.2.! ! ~ ! ~ ~ ! W r = < , 1           ",
"          1 , , , , , , , > r W 2.2.~ ~ 2.~ ~ ~ ~ ~ ~ ! 2.R W 2.~ ! 8.h.g.h.h.z.z.h.z.a.5.W 2.2.~ ~ 2.~ 2.W r - , , 1           ",
"          1 , , , , , , , , r W ! W W ! ! ~ ~ ~ ~ ~ ~ ~ R 2.2.2.~ ~ 8.d.a.j.s.a.a.a.a.a.4.W W ! ~ W ! ~ ! E r - < , <           ",
"                              i i i u d ~ ~ 2.! ~ ~ 2.~ 2.2.R 2.&.~ 3.4.4.4.4.Y k k l l p i i u u i i i i i                     ",
"                              ; % = $ u 2.~ ~ ! ~ %.2.W 2.2.2. .! ~ ~ W W W ! u @ $ $ # $ = = = % = = % = =                     ",
"                              < < < > p W ~ ~ 2.2.2.2.2.2.W 2.W ! 2.~ 2.2.~ 2.s < < < < , , < , < < , , < <                     ",
"                              < , , = i 2.! ! ! 2.2.2.2. .2.W 2.2.2.~ ~ 2.! 2.s - , , , , , , , , , , , > ,                     ",
"                              , , , - i 2.W ! ! 2.W W  .2.2.2.W 2.%.~ ~ ! W ! p - , , , > , , , > , > , , ,                     ",
"                              1 < 1 : a ~ 2.2.2.2.3.3.2.2.3.2.2.2.2.2.2.2.2.2.s : 2 1 1 1 1 1 < < 1 1 < < 1                     ",
"                              2 2 2 , r I P P I d I I I d I I I I d I I I d I p , 2 1 1 1 1 1 1 1 1 1 1 1 1                     ",
"                                        ; ; = = = = & = = = & = & & = = = = =                                                   ",
"                                        2 < , , , , , , , < > , , , < , , , <                                                   ",
"                                        < , , , , , > , > , , , , , , , , , ,                                                   ",
"                                        < , > > , , > , , , > , , > , , , , ,                                                   ",
"                                        < , , , > , , , , > > , , > , > , , ,                                                   ",
"                                        , , > , , , > , , , , , , , , > , , ,                                                   "
};
